<svg width="16" height="12" viewBox="0 0 16 12" fill="none" xmlns="http://www.w3.org/2000/svg">
<path d="M9.28151 2.25831C8.78105 1.74169 8.78105 0.904084 9.28151 0.387465C9.78197 -0.129155 10.5934 -0.129155 11.0938 0.387465L15.6247 5.06458C16.0626 5.51662 16.1173 6.21442 15.7889 6.7279C15.742 6.80125 15.6865 6.87162 15.6239 6.9362L11.0938 11.6125C10.5934 12.1292 9.78197 12.1292 9.28151 11.6125C8.78105 11.0959 8.78105 10.2583 9.28151 9.74169L11.5602 7.38938H1.28151C0.573751 7.38938 0 6.7971 0 6.06649C0 5.33588 0.573751 4.7436 1.28151 4.7436H11.6891L9.28151 2.25831Z" fill="#8C96A2"/>
</svg>
