<svg width="60" height="31" viewBox="0 0 60 31" fill="none" xmlns="http://www.w3.org/2000/svg">
<path d="M10.0776 8.41425H4.88281" stroke="#175599" stroke-width="2" stroke-miterlimit="10"/>
<path d="M57.8704 2.15021H11.1172V29.291H57.8704V2.15021Z" fill="white"/>
<path d="M11.1172 19.8961V2.15021H57.8704V29.291H11.1172V23.0278" stroke="#175599" stroke-width="2" stroke-miterlimit="10"/>
<path d="M49.5588 24.0732H19.4289C19.4289 22.2986 18.0782 20.9416 16.312 20.9416V10.5028C18.0782 10.5028 19.4289 9.14575 19.4289 7.37115H49.5588C49.5588 9.14575 50.9094 10.5028 52.6756 10.5028V20.9416C50.9094 20.9416 49.5588 22.2986 49.5588 24.0732Z" fill="#A3D4FF" stroke="#175599" stroke-width="2" stroke-miterlimit="10"/>
<path d="M22.5454 15.7214H24.6233" stroke="#175599" stroke-width="2" stroke-miterlimit="10"/>
<path d="M44.3633 15.7214H46.4412" stroke="#175599" stroke-width="2" stroke-miterlimit="10"/>
<path d="M29.8184 15.7225C29.8184 12.7996 31.8963 10.5031 34.4937 10.5031C37.0911 10.5031 39.169 12.7996 39.169 15.7225C39.169 18.6454 37.0911 20.9419 34.4937 20.9419C31.8963 20.9419 29.8184 18.6454 29.8184 15.7225Z" fill="white" stroke="#175599" stroke-width="2" stroke-miterlimit="10"/>
<path d="M14.234 19.8965H0.727539" stroke="#175599" stroke-width="2" stroke-miterlimit="10"/>
</svg>
