<svg width="60" height="60" viewBox="0 0 60 60" fill="none" xmlns="http://www.w3.org/2000/svg">
<path d="M50.5709 22.1864V10.7966C50.5709 8.70847 48.8567 7 46.7614 7H22.9519C20.8567 7 19.1424 8.70847 19.1424 10.7966V15.5424H5.80904C3.7138 15.5424 1.99951 17.2508 1.99951 19.339V36.4237C1.99951 38.5119 3.7138 40.2203 5.80904 40.2203H9.61856V46.3898C9.61856 47.2441 10.6662 47.6237 11.2376 47.0542L17.9043 40.2203H24.8567V43.0678C24.8567 45.1559 26.5709 46.8644 28.6662 46.8644H43.2376L49.9043 53.6983C50.4757 54.2678 51.5233 53.8881 51.5233 53.0339V46.8644H54.3805C56.4757 46.8644 58.19 45.1559 58.19 43.0678V25.9831C58.19 23.8949 56.4757 22.1864 54.3805 22.1864H50.5709Z" fill="white"/>
<path d="M5.80904 15.5424H28.6662C30.7614 15.5424 32.4757 17.2508 32.4757 19.339V36.4237C32.4757 38.5119 30.7614 40.2203 28.6662 40.2203H17.9043L11.2376 47.0542C10.6662 47.6237 9.61856 47.2441 9.61856 46.3898V40.2203H5.80904C3.7138 40.2203 1.99951 38.5119 1.99951 36.4237V19.339C1.99951 17.2508 3.7138 15.5424 5.80904 15.5424Z" fill="#A3D4FF" stroke="#175599" stroke-width="2" stroke-miterlimit="10"/>
<path d="M19.1426 18.3898V26.9322C19.1426 29.0203 20.8569 30.7288 22.9521 30.7288H29.6188" stroke="#175599" stroke-width="2" stroke-miterlimit="10"/>
<path d="M50.5712 22.1864V10.7966C50.5712 8.70847 48.8569 7 46.7616 7H22.9521C20.8569 7 19.1426 8.70847 19.1426 10.7966V15.5424" stroke="#175599" stroke-width="2" stroke-miterlimit="10"/>
<path d="M32.4756 30.7288H37.2375L43.2375 37.3729C43.8089 38.0373 44.8565 37.6576 44.8565 36.7085V30.6339H46.7613C48.8565 30.6339 50.5708 28.9254 50.5708 26.8373V24.939" stroke="#175599" stroke-width="2" stroke-miterlimit="10"/>
<path d="M24.8564 40.2204V43.0678C24.8564 45.156 26.5707 46.8644 28.666 46.8644H43.2374L49.9041 53.6983C50.4755 54.2678 51.5231 53.8882 51.5231 53.0339V46.8644H54.3803C56.4755 46.8644 58.1898 45.156 58.1898 43.0678V25.9831C58.1898 23.8949 56.4755 22.1865 54.3803 22.1865H32.4755" stroke="#175599" stroke-width="2" stroke-miterlimit="10"/>
<path d="M24.8564 30.7288V37.3729" stroke="#175599" stroke-width="2" stroke-miterlimit="10"/>
<path d="M29.6184 22.1865H28.666C26.5707 22.1865 24.8564 23.8949 24.8564 25.9831V27.8814" stroke="#175599" stroke-width="2" stroke-miterlimit="10"/>
</svg>
