<svg width="11" height="8" viewBox="0 0 11 8" fill="none" xmlns="http://www.w3.org/2000/svg">
<path d="M0.571492 4.65981C0.160414 4.24873 0.160414 3.58224 0.571492 3.17117C0.98257 2.76009 1.64906 2.76009 2.06014 3.17117L4.72334 5.83437C5.13442 6.24544 5.13442 6.91193 4.72334 7.32301C4.31226 7.73409 3.64577 7.73409 3.23469 7.32301L0.571492 4.65981Z" fill="white"/>
<path d="M4.72334 7.32301C4.31226 7.73409 3.64577 7.73409 3.23469 7.32301C2.82361 6.91193 2.82361 6.24544 3.23469 5.83437L8.44495 0.624105C8.85603 0.213026 9.52252 0.213026 9.9336 0.624104C10.3447 1.03518 10.3447 1.70167 9.9336 2.11275L4.72334 7.32301Z" fill="white"/>
</svg>
