<svg width="10" height="8" viewBox="0 0 10 8" fill="none" xmlns="http://www.w3.org/2000/svg">
<path d="M0.308966 4.45356C-0.102989 4.03211 -0.102989 3.34882 0.308966 2.92737C0.720921 2.50593 1.38883 2.50593 1.80079 2.92737L4.46967 5.65773C4.88162 6.07918 4.88162 6.76247 4.46967 7.18392C4.05771 7.60536 3.3898 7.60536 2.97785 7.18392L0.308966 4.45356Z" fill="#24B63B"/>
<path d="M4.46967 7.18392C4.05771 7.60536 3.3898 7.60536 2.97785 7.18392C2.56589 6.76247 2.56589 6.07917 2.97784 5.65773L8.19921 0.316083C8.61117 -0.105361 9.27908 -0.105361 9.69103 0.316083C10.103 0.737527 10.103 1.42082 9.69103 1.84227L4.46967 7.18392Z" fill="#24B63B"/>
</svg>
