<svg width="12" height="12" viewBox="0 0 12 12" fill="none" xmlns="http://www.w3.org/2000/svg">
<path d="M0.238645 0.238645C-0.0795504 0.55684 -0.079546 1.07273 0.238645 1.39092L4.84773 6L0.238645 10.6091C-0.0795504 10.9273 -0.079546 11.4432 0.238645 11.7614C0.556835 12.0795 1.07272 12.0795 1.39092 11.7614L6 7.15227L10.6091 11.7614C10.9273 12.0795 11.4432 12.0795 11.7614 11.7614C12.0795 11.4432 12.0795 10.9273 11.7614 10.6091L7.15227 6L11.7614 1.39092C12.0795 1.07272 12.0795 0.556835 11.7614 0.238645C11.4432 -0.079546 10.9273 -0.0795504 10.6091 0.238645L6 4.84773L1.39092 0.238645C1.07273 -0.079546 0.55684 -0.0795504 0.238645 0.238645Z" fill="#8C96A2"/>
</svg>
