<svg width="8" height="8" viewBox="0 0 8 8" fill="none" xmlns="http://www.w3.org/2000/svg">
<path d="M0.159096 0.159096C-0.0530336 0.371226 -0.0530307 0.71515 0.159096 0.927277L3.23182 4L0.159096 7.07272C-0.0530336 7.28485 -0.0530307 7.62878 0.159096 7.8409C0.371223 8.05303 0.715147 8.05303 0.927277 7.8409L4 4.76818L7.07272 7.8409C7.28485 8.05303 7.62877 8.05303 7.8409 7.8409C8.05303 7.62877 8.05303 7.28485 7.8409 7.07272L4.76818 4L7.8409 0.927277C8.05303 0.715147 8.05303 0.371223 7.8409 0.159096C7.62878 -0.0530307 7.28485 -0.0530336 7.07272 0.159096L4 3.23182L0.927277 0.159096C0.71515 -0.0530307 0.371226 -0.0530336 0.159096 0.159096Z" fill="white"/>
</svg>
