<svg width="12" height="16" viewBox="0 0 12 16" fill="none" xmlns="http://www.w3.org/2000/svg">
<path fill-rule="evenodd" clip-rule="evenodd" d="M2.43147 0H4.03969V2H5.94031V0H7.54854V2.08422C8.34933 2.20539 8.9995 2.45732 9.49907 2.84C10.2409 3.4 10.6118 4.16 10.6118 5.12C10.6118 5.70286 10.4774 6.22286 10.2086 6.68C9.9506 7.13714 9.58508 7.49714 9.11204 7.76C9.75709 7.97714 10.2624 8.34286 10.6279 8.85714C10.9934 9.36 11.1762 9.98286 11.1762 10.7257C11.1762 11.7771 10.7892 12.5886 10.0151 13.16C9.4418 13.5806 8.66837 13.8433 7.6948 13.948V16H6.08657V14H4.03969V16H2.43147V14H0.823242V2H2.43147V0ZM3.41954 4.09143V6.92H6.01584C6.66088 6.92 7.15004 6.8 7.48331 6.56C7.81658 6.32 7.98322 5.96571 7.98322 5.49714C7.98322 5.02857 7.81658 4.68 7.48331 4.45143C7.15004 4.21143 6.66088 4.09143 6.01584 4.09143H3.41954ZM6.46737 11.9086C7.15541 11.9086 7.67145 11.7886 8.01547 11.5486C8.37025 11.3086 8.54763 10.9371 8.54763 10.4343C8.54763 9.44 7.85421 8.94286 6.46737 8.94286H3.41954V11.9086H6.46737Z" fill="#8C96A2"/>
</svg>
