<svg width="40" height="40" fill="none" xmlns="http://www.w3.org/2000/svg">
  <path d="M28.069 0h-15.44a3.509 3.509 0 00-3.508 3.509V36.49A3.509 3.509 0 0012.63 40h23.86a3.509 3.509 0 003.508-3.509V11.93h-7.017L28.068 0z" fill="#D7DADD"/>
  <path d="M28.07 0v8.421a3.509 3.509 0 003.51 3.509H40L28.07 0z" fill="#A8ADBA"/>
  <path d="M39.998 18.246l-9.123-6.316h9.123v6.316z" fill="#D4D6DD"/>
  <path opacity=".3" d="M9.121 34.386h20.351a2.105 2.105 0 002.105-2.105V19.649a2.105 2.105 0 00-2.105-2.105H9.122v16.842z" fill="#175BC1"/>
  <path d="M0 18.246c0-1.163.943-2.106 2.105-2.106H28.07c1.163 0 2.105.943 2.105 2.106v12.631a2.105 2.105 0 01-2.105 2.106H2.105A2.105 2.105 0 010 30.877V18.246z" fill="#175BC1"/>
  <path d="M3.75 21.965h2.455c.586 0 1.104.113 1.551.34a2.46 2.46 0 011.05.941c.252.407.378.88.378 1.42 0 .541-.126 1.014-.378 1.421a2.509 2.509 0 01-1.05.95c-.447.22-.965.332-1.551.332H3.75v-5.404zm2.393 4.377c.54 0 .97-.15 1.29-.448.323-.304.485-.713.485-1.227 0-.515-.162-.922-.486-1.22-.319-.304-.749-.455-1.289-.455H5.001v3.35h1.142zM12.744 27.461c-.56 0-1.067-.12-1.52-.363a2.737 2.737 0 01-1.058-.995 2.77 2.77 0 01-.378-1.436c0-.53.126-1.006.378-1.428.257-.428.61-.762 1.058-1.004.453-.242.96-.363 1.52-.363.561 0 1.066.121 1.513.363a2.719 2.719 0 011.444 2.432c0 .53-.129 1.008-.386 1.435-.258.422-.61.754-1.058.996a3.131 3.131 0 01-1.513.363zm0-1.065c.32 0 .608-.072.865-.216a1.58 1.58 0 00.602-.618c.15-.262.224-.56.224-.895a1.78 1.78 0 00-.224-.896 1.526 1.526 0 00-.602-.61 1.692 1.692 0 00-.865-.223c-.319 0-.607.074-.864.223-.258.144-.46.348-.61.61a1.83 1.83 0 00-.216.896c0 .334.072.633.216.895.15.263.352.468.61.618.257.144.545.216.864.216zM19.227 27.461c-.551 0-1.05-.118-1.498-.355a2.752 2.752 0 01-1.05-.996 2.786 2.786 0 01-.378-1.443c0-.536.126-1.014.378-1.436.258-.427.608-.76 1.05-.996.448-.242.95-.363 1.505-.363.469 0 .89.083 1.266.247.381.165.7.402.957.71l-.802.742c-.366-.422-.819-.633-1.359-.633a1.78 1.78 0 00-.895.223 1.564 1.564 0 00-.618.61 1.83 1.83 0 00-.216.896c0 .334.072.633.216.895.15.263.355.468.618.618.262.144.56.216.895.216.54 0 .993-.214 1.359-.64l.802.74a2.503 2.503 0 01-.957.718c-.38.165-.805.247-1.273.247zM25.6 27.369l-1.304-1.876-1.281 1.876h-1.436l2-2.749-1.9-2.655h1.42l1.243 1.752 1.22-1.752h1.35l-1.883 2.61 2.015 2.794h-1.443z" fill="#fff"/>
</svg>