<svg width="40" height="33" viewBox="0 0 40 33" fill="none" xmlns="http://www.w3.org/2000/svg">
<path d="M35.5 17.5655C34.1193 17.5655 33 18.7172 33 20.1379V26.2474H7V20.1379C7 18.7172 5.88071 17.5655 4.5 17.5655H2.5C1.11929 17.5655 0 18.7172 0 20.1379V30.4276C0 31.8483 1.11929 33 2.5 33H37.5C38.8807 33 40 31.8483 40 30.4276V20.1379C40 18.7172 38.8807 17.5655 37.5 17.5655H35.5Z" fill="#175599"/>
<path d="M15.2857 20.1379C15.2857 21.5586 16.405 22.7104 17.7857 22.7104H22.3439C23.7246 22.7104 24.8439 21.5586 24.8439 20.1379V11.5265H31.2286C31.6828 11.5265 31.9017 10.9536 31.5691 10.6353L21.702 1.18908C20.7422 0.270251 19.2557 0.270315 18.296 1.18923L8.43067 10.6353C8.09818 10.9537 8.31711 11.5265 8.77128 11.5265H15.2857V20.1379Z" fill="#175599"/>
</svg>
