<svg width="15" height="14" viewBox="0 0 15 14" fill="none" xmlns="http://www.w3.org/2000/svg">
<circle cx="7.5" cy="7" r="7" fill="white"/>
<path d="M9.84645 4.65539C9.55872 4.36765 9.09217 4.36762 8.8044 4.65539L7.50184 5.95795L6.19927 4.65539C5.91154 4.36765 5.44499 4.36762 5.15722 4.65539C4.86945 4.94315 4.86948 5.40971 5.15722 5.69744L6.45978 7.00001L5.15722 8.30257C4.86945 8.59034 4.86948 9.05689 5.15722 9.34462C5.44495 9.63236 5.9115 9.63239 6.19927 9.34462L7.50184 8.04206L8.8044 9.34462C9.09214 9.63236 9.55869 9.63239 9.84645 9.34462C10.1342 9.05686 10.1342 8.59031 9.84645 8.30257L8.54389 7.00001L9.84645 5.69744C10.1342 5.40967 10.1342 4.94312 9.84645 4.65539Z" fill="#FF0000"/>
</svg>
