<svg width="16" height="14" viewBox="0 0 16 14" fill="none" xmlns="http://www.w3.org/2000/svg">
<path d="M8 3.00001C7.44771 3.00001 7 3.44773 7 4.00001C7 4.55228 7.44771 5.00001 8 5.00001H12.5089L11.3033 6.21641C10.8989 6.62443 10.8989 7.28596 11.3033 7.69398C11.7077 8.10203 12.3634 8.10203 12.7678 7.69398L15.6967 4.73881C16.1011 4.33079 16.1011 3.66923 15.6967 3.26121L12.7678 0.306038C12.3634 -0.102013 11.7077 -0.102013 11.3033 0.306038C10.8989 0.714058 10.8989 1.37559 11.3033 1.78361L12.5089 3.00001L8 3.00001Z" fill="#8C96A2"/>
<path d="M8 9.00001C8.5523 9.00001 9 9.44773 9 10C9 10.5523 8.5523 11 8 11H3.49112L4.6967 12.2164C5.10111 12.6244 5.10111 13.286 4.6967 13.694C4.2923 14.102 3.63663 14.102 3.23224 13.694L0.303303 10.7388C-0.101101 10.3308 -0.101101 9.66923 0.303303 9.26121L3.23224 6.30604C3.63663 5.89799 4.2923 5.89799 4.6967 6.30604C5.10111 6.71406 5.10111 7.37559 4.6967 7.78361L3.49112 9.00001H8Z" fill="#8C96A2"/>
</svg>
