<svg width="22" height="12" fill="none" xmlns="http://www.w3.org/2000/svg">
  <mask id="a" maskUnits="userSpaceOnUse" x="0" y="0" width="22" height="12">
    <path d="M0 1.818C0 .814.724 0 1.616 0h18.768C21.276 0 22 .814 22 1.818v8.364C22 11.186 21.276 12 20.384 12H1.616C.724 12 0 11.186 0 10.182V1.818z" fill="#C4C4C4"/>
  </mask>
  <g mask="url(#a)">
    <path d="M22 0H0v12h22V0z" fill="#039"/>
    <path d="M10.877 1.382l.133.46h.442l-.357.286.133.46-.357-.286-.357.286.133-.46-.357-.286h.442l.145-.46zM14.023 7.382l.133.46h.441l-.356.287.133.46-.357-.287-.357.287.133-.46-.357-.287h.441l.146-.46zM10.877 9.382l.133.46h.442l-.357.287.133.46-.357-.287-.357.287.133-.46-.357-.287h.442l.145-.46zM14.507 5.382l.133.46h.441l-.357.287.133.46-.356-.287-.357.287.133-.46-.357-.287h.441l.146-.46zM7.247 5.382l.133.46h.442l-.357.287.133.46-.35-.287-.358.287.134-.46-.357-.287h.441l.14-.46zM12.692 1.915l.133.46h.442l-.357.287.133.46-.357-.287-.357.287.133-.46-.357-.287h.442l.145-.46zM9.062 1.915l.133.46h.442l-.357.287.133.46-.357-.287-.357.287.133-.46-.357-.287h.442l.145-.46zM9.062 8.848l.133.46h.442l-.357.287.133.46-.357-.287-.357.287.133-.46-.357-.287h.442l.145-.46zM12.692 8.848l.133.46h.442l-.357.287.133.46-.357-.287-.357.287.133-.46-.357-.287h.442l.145-.46zM14.023 3.382l.133.46h.441l-.356.286.133.46-.357-.286-.357.286.133-.46-.357-.286h.441l.146-.46zM7.731 3.382l.133.46h.442l-.357.286.133.46-.35-.286-.358.286.134-.46-.357-.286h.441l.14-.46zM7.731 7.382l.133.46h.442l-.357.287.133.46-.357-.287-.357.287.133-.46-.356-.287h.441l.145-.46z" fill="#FFEF52"/>
  </g>
</svg>
