<svg width="24" height="12" viewBox="0 0 24 12" fill="none" xmlns="http://www.w3.org/2000/svg">
<g clip-path="url(#clip0)">
<path d="M0 0V12H24V0H0Z" fill="#012169"/>
<path d="M0 0L24 12L0 0ZM24 0L0 12L24 0Z" fill="black"/>
<path d="M24 0L0 12M0 0L24 12L0 0Z" stroke="white" stroke-width="2.4"/>
<path d="M0 0L24 12L0 0ZM24 0L0 12L24 0Z" fill="black"/>
<path d="M24 0L0 12M0 0L24 12L0 0Z" stroke="#C8102E" stroke-width="1.6"/>
<path d="M12 0V12V0ZM0 6H24H0Z" fill="black"/>
<path d="M0 6H24M12 0V12V0Z" stroke="white" stroke-width="4"/>
<path d="M12 0V12V0ZM0 6H24H0Z" fill="black"/>
<path d="M0 6H24M12 0V12V0Z" stroke="#C8102E" stroke-width="2.4"/>
</g>
<defs>
<clipPath id="clip0">
<rect width="24" height="12" fill="white"/>
</clipPath>
</defs>
</svg>
