<svg width="60" height="51" viewBox="0 0 60 51" fill="none" xmlns="http://www.w3.org/2000/svg">
<g clip-path="url(#clip0)">
<path d="M50.6367 35.2188C50.2546 35.5075 49.7768 35.8924 49.2991 36.0849" stroke="#175599" stroke-width="2" stroke-miterlimit="10"/>
<path d="M52.9297 32.9094C52.6431 33.2943 52.2609 33.7755 51.8787 34.1604" stroke="#175599" stroke-width="2" stroke-miterlimit="10"/>
<path d="M54.5537 29.9264C54.3626 30.5038 54.1715 30.9849 53.8849 31.466" stroke="#175599" stroke-width="2" stroke-miterlimit="10"/>
<path d="M40.9872 15.3C46.9107 13.5679 53.1209 17.032 54.8407 22.9981C55.3184 24.8264 55.4139 26.6547 55.0318 28.3868" stroke="#175599" stroke-width="2" stroke-miterlimit="10"/>
<path d="M44.1401 18.0905L40.7962 14.8188L44.0446 11.5471" stroke="#175599" stroke-width="2" stroke-miterlimit="10"/>
<path d="M58.4712 17.9943C58.6623 18.6679 58.9489 19.5339 59.0444 20.2075" stroke="#175599" stroke-width="2" stroke-miterlimit="10"/>
<path d="M56.6557 14.2415C57.0379 14.8189 57.5156 15.5887 57.8022 16.166" stroke="#175599" stroke-width="2" stroke-miterlimit="10"/>
<path d="M53.5029 10.7773C54.1717 11.2585 54.7449 11.8358 55.2227 12.4132" stroke="#175599" stroke-width="2" stroke-miterlimit="10"/>
<path d="M32.5792 11.7396C35.6365 8.75659 39.8404 7.02452 44.4264 7.3132C47.1015 7.50565 49.5856 8.27546 51.6875 9.62263" stroke="#175599" stroke-width="2" stroke-miterlimit="10"/>
<path d="M5.54132 18.7641C5.92349 18.4755 6.49674 18.0906 6.87891 17.8019" stroke="#175599" stroke-width="2" stroke-miterlimit="10"/>
<path d="M3.24804 21.0735C3.53466 20.6886 4.01237 20.1113 4.39453 19.7264" stroke="#175599" stroke-width="2" stroke-miterlimit="10"/>
<path d="M1.62418 24.0566C1.81526 23.4792 2.00634 22.9981 2.29297 22.517" stroke="#175599" stroke-width="2" stroke-miterlimit="10"/>
<path d="M15.1909 38.683C9.26735 40.4151 3.05716 36.9509 1.33742 30.9849C0.85971 29.1566 0.764171 27.3283 1.14634 25.5962" stroke="#175599" stroke-width="2" stroke-miterlimit="10"/>
<path d="M12.1334 35.8925L15.3818 39.1642L12.1334 42.4359" stroke="#175599" stroke-width="2" stroke-miterlimit="10"/>
<path d="M9.64962 18.7641C9.64962 25.9386 15.4243 31.7547 22.5477 31.7547C29.6711 31.7547 35.4458 25.9386 35.4458 18.7641C35.4458 11.5896 29.6711 5.77356 22.5477 5.77356C15.4243 5.77356 9.64962 11.5896 9.64962 18.7641Z" fill="#A3D4FF" stroke="#175599" stroke-width="2" stroke-miterlimit="10"/>
<path d="M21.1143 36.566C21.1143 43.4748 26.6751 49.0755 33.5347 49.0755C40.3943 49.0755 45.9551 43.4748 45.9551 36.566C45.9551 29.6572 40.3943 24.0566 33.5347 24.0566C26.6751 24.0566 21.1143 29.6572 21.1143 36.566Z" fill="#E9EAEB" stroke="#175599" stroke-width="2" stroke-miterlimit="10"/>
<path fill-rule="evenodd" clip-rule="evenodd" d="M35.7296 30.0529C36.9587 30.2329 38.0157 30.8374 38.6362 31.3489L37.3638 32.8921C36.9586 32.5579 36.2311 32.1477 35.4397 32.0317C34.792 31.9369 34.1083 32.0343 33.4615 32.5579V35.1944H34.9231V37.1944H33.4615V39.9999H37V41.9999H30V39.9999H31.4615V37.1944H30V35.1944H31.4615V32.1205V31.7151L31.7438 31.4241C32.9855 30.1444 34.4518 29.8657 35.7296 30.0529Z" fill="#175599"/>
<path fill-rule="evenodd" clip-rule="evenodd" d="M24.4721 13.0664C23.2581 13.0664 22.2194 13.8296 21.8098 14.8882H24.4722V16.8882H21.623V17.7544H24.4722V19.7544H21.8098C22.2196 20.8129 23.2582 21.576 24.4721 21.576H27.3589V23.576H24.4721C22.1526 23.576 20.1944 21.9362 19.7283 19.7544H17.7363V17.7544H19.623V16.8882H17.7363V14.8882H19.7282C20.1943 12.7063 22.1526 11.0664 24.4721 11.0664H27.3589V13.0664H24.4721Z" fill="#175599"/>
</g>
<defs>
<clipPath id="clip0">
<rect width="51" height="60" fill="white" transform="translate(60) rotate(90)"/>
</clipPath>
</defs>
</svg>
