<svg width="17" height="17" viewBox="0 0 17 17" fill="none" xmlns="http://www.w3.org/2000/svg">
<g clip-path="url(#clip0)">
<path d="M17.0004 8.69513C17.0004 8.11732 16.9526 7.53639 16.8507 6.96796H8.6709V10.2412H13.3551C13.1607 11.2968 12.5361 12.2307 11.6216 12.8241V14.9479H14.4162C16.0572 13.4675 17.0004 11.2812 17.0004 8.69513Z" fill="#4285F4"/>
<path d="M8.67047 17C11.0094 17 12.9818 16.2473 14.4189 14.948L11.6244 12.8242C10.8469 13.3426 9.84311 13.6362 8.67366 13.6362C6.41124 13.6362 4.49297 12.1402 3.80468 10.1288H0.920898V12.3182C2.39306 15.1885 5.39156 17 8.67047 17Z" fill="#34A853"/>
<path d="M3.80114 10.1288C3.43788 9.07311 3.43788 7.92999 3.80114 6.87432V4.68491H0.92054C-0.309451 7.08671 -0.309451 9.9164 0.92054 12.3182L3.80114 10.1288Z" fill="#FBBC04"/>
<path d="M8.67047 3.36376C9.90684 3.34502 11.1018 3.80102 11.9972 4.63806L14.4731 2.21127C12.9053 0.768319 10.8245 -0.0249933 8.67047 -7.02892e-06C5.39156 -7.02892e-06 2.39306 1.81149 0.920898 4.68491L3.8015 6.87433C4.48659 4.85981 6.40806 3.36376 8.67047 3.36376Z" fill="#EA4335"/>
</g>
<defs>
<clipPath id="clip0">
<rect width="17" height="17" fill="white"/>
</clipPath>
</defs>
</svg>
