<svg width="25" height="18" viewBox="0 0 25 18" fill="none" xmlns="http://www.w3.org/2000/svg">
<path d="M0.5 1.5C0.5 0.671573 1.17157 0 2 0H23C23.8284 0 24.5 0.671573 24.5 1.5C24.5 2.32843 23.8284 3 23 3H2C1.17157 3 0.5 2.32843 0.5 1.5Z" fill="#8C96A2"/>
<path d="M0.5 9C0.5 8.17157 1.17157 7.5 2 7.5H23C23.8284 7.5 24.5 8.17157 24.5 9C24.5 9.82843 23.8284 10.5 23 10.5H2C1.17157 10.5 0.5 9.82843 0.5 9Z" fill="#8C96A2"/>
<path d="M0.5 16.5C0.5 15.6716 1.17157 15 2 15H23C23.8284 15 24.5 15.6716 24.5 16.5C24.5 17.3284 23.8284 18 23 18H2C1.17157 18 0.5 17.3284 0.5 16.5Z" fill="#8C96A2"/>
</svg>
