<svg width="14" height="16" viewBox="0 0 14 16" fill="none" xmlns="http://www.w3.org/2000/svg">
<path fill-rule="evenodd" clip-rule="evenodd" d="M12.4444 1.6H11.6667V0H10.1111V1.6H3.88889V0H2.33333V1.6H1.55556C0.7 1.6 0 2.32 0 3.2V14.4C0 15.28 0.7 16 1.55556 16H12.4444C13.3 16 14 15.28 14 14.4V3.2C14 2.32 13.3 1.6 12.4444 1.6ZM12.4444 14.4H1.55556V5.6H12.4444V14.4Z" fill="#8C96A2"/>
<path d="M5 7.5H3V9.5H5V7.5Z" fill="#8C96A2"/>
<path d="M5 10.5H3V12.5H5V10.5Z" fill="#8C96A2"/>
<path d="M8 7.5H6V9.5H8V7.5Z" fill="#8C96A2"/>
<path d="M8 10.5H6V12.5H8V10.5Z" fill="#8C96A2"/>
<path d="M11 7.5H9V9.5H11V7.5Z" fill="#8C96A2"/>
<path d="M11 10.5H9V12.5H11V10.5Z" fill="#8C96A2"/>
</svg>
