<svg width="16" height="16" viewBox="0 0 16 16" fill="none" xmlns="http://www.w3.org/2000/svg">
<path d="M9.37976 5.66458C8.9667 5.8789 8.49749 6 8 6C7.50251 6 7.0333 5.8789 6.62024 5.66458L4.03756 10.1843C5.18309 10.6065 6 11.7079 6 13C6 14.6569 4.65685 16 3 16C1.34315 16 0 14.6569 0 13C0 11.3461 1.33834 10.0048 2.99109 10L5.81589 5.05662C5.31001 4.51959 5 3.796 5 3C5 1.34315 6.34315 0 8 0C9.65685 0 11 1.34315 11 3C11 3.796 10.69 4.51959 10.1841 5.05662L13.0089 10C14.6617 10.0048 16 11.3461 16 13C16 14.6569 14.6569 16 13 16C11.3431 16 10 14.6569 10 13C10 11.7079 10.8169 10.6065 11.9624 10.1843L9.37976 5.66458Z" fill="#175599"/>
</svg>
