<svg width="16" height="16" viewBox="0 0 16 16" fill="none" xmlns="http://www.w3.org/2000/svg">
<path d="M14.3415 0C14.1245 0 13.918 0.0936805 13.7751 0.257001L1.09213 14.7518C0.666355 15.2385 1.01192 16 1.6585 16C1.87552 16 2.08197 15.9063 2.22488 15.743L14.9079 1.24815C15.3336 0.761549 14.9881 0 14.3415 0Z" fill="#8C96A2"/>
<path d="M8 2C8.91026 2 9.785 2.16978 10.6002 2.45687L9.11278 4.15682C8.75952 4.05472 8.38615 4 8 4C5.79086 4 4 5.79086 4 8C4 8.57394 4.12088 9.11966 4.33857 9.61306L2.41499 11.8114C0.925113 10.5495 0 9.01644 0 8C0 6 3.58172 2 8 2Z" fill="#8C96A2"/>
<path d="M8 12C7.61385 12 7.24048 11.9453 6.88722 11.8432L5.39976 13.5431C6.21499 13.8302 7.08974 14 8 14C12.4183 14 16 10 16 8C16 6.98356 15.0749 5.45055 13.585 4.18856L11.6614 6.38694C11.8791 6.88035 12 7.42606 12 8C12 10.2091 10.2091 12 8 12Z" fill="#8C96A2"/>
</svg>
