<svg width="16" height="16" viewBox="0 0 16 16" fill="none" xmlns="http://www.w3.org/2000/svg">
<path d="M3.28553 6.85714C2.73324 6.85714 2.28553 7.30486 2.28553 7.85714V11.1905C2.28553 11.7428 2.73324 12.1905 3.28553 12.1905H3.57124C4.12353 12.1905 4.57124 11.7428 4.57124 11.1905V7.85714C4.57124 7.30486 4.12353 6.85714 3.57124 6.85714H3.28553ZM7.85696 6.85714C7.30467 6.85714 6.85696 7.30486 6.85696 7.85714V11.1905C6.85696 11.7428 7.30467 12.1905 7.85696 12.1905H8.14267C8.69496 12.1905 9.14267 11.7428 9.14267 11.1905V7.85714C9.14267 7.30486 8.69496 6.85714 8.14267 6.85714H7.85696ZM0.761719 15C0.761719 15.5523 1.20943 16 1.76172 16H14.2379C14.7902 16 15.2379 15.5523 15.2379 15V14.7143C15.2379 14.162 14.7902 13.7143 14.2379 13.7143H1.76172C1.20943 13.7143 0.761719 14.162 0.761719 14.7143V15ZM12.4284 6.85714C11.8761 6.85714 11.4284 7.30486 11.4284 7.85714V11.1905C11.4284 11.7428 11.8761 12.1905 12.4284 12.1905H12.7141C13.2664 12.1905 13.7141 11.7428 13.7141 11.1905V7.85714C13.7141 7.30486 13.2664 6.85714 12.7141 6.85714H12.4284ZM8.13954 0.073539C8.05208 0.0275062 7.94755 0.0275062 7.86009 0.0735389L0.921995 3.72517C0.823429 3.77704 0.761719 3.87926 0.761719 3.99064V5.03333C0.761719 5.19902 0.896033 5.33333 1.06172 5.33333H14.9379C15.1036 5.33333 15.2379 5.19902 15.2379 5.03333V3.99064C15.2379 3.87926 15.1762 3.77704 15.0776 3.72517L8.13954 0.073539Z" fill="#8C96A2"/>
</svg>
