<svg width="14" height="16" viewBox="0 0 14 16" fill="none" xmlns="http://www.w3.org/2000/svg">
<path d="M13.7241 2.30773C13.7241 2.30773 13.7941 2.51601 13.8991 2.89091C13.9743 3.14917 14.0246 3.25931 13.9875 3.30498C13.9533 3.34697 13.8453 3.33446 13.6147 3.33247H0.383395C0.1529 3.33247 0.0458351 3.34489 0.0122202 3.30338C-0.0243564 3.25822 0.0260303 3.14922 0.0989913 2.89091C0.208377 2.52018 0.260882 2.34939 0.260882 2.34939C0.371531 1.97259 0.66431 1.92681 1.07078 1.86326C1.08221 1.86147 1.09373 1.85967 1.10534 1.85785L3.43307 1.57876C3.72185 1.52877 3.72185 1.52877 3.83561 1.2955C3.90593 1.14392 3.96713 1.00413 4.02282 0.876963C4.2686 0.315647 4.40682 0 4.7457 0H9.25241C9.59305 0 9.73387 0.31893 9.98312 0.883424C10.038 1.00774 10.0982 1.14397 10.1669 1.29133C10.2806 1.52877 10.2806 1.52877 10.5694 1.57459L12.8928 1.85368C12.9361 1.86042 12.978 1.86648 13.0185 1.87233C13.3782 1.92429 13.6218 1.9595 13.7241 2.30773Z" fill="#8C96A2"/>
<path d="M1.59977 4.66545H12.3983C13.1247 4.66545 13.1597 4.75293 13.1159 5.27779L12.2977 15.3835C12.2277 15.8959 12.1752 16 11.532 16H2.4661C1.82291 16 1.77041 15.8959 1.7004 15.3835L0.882193 5.27779C0.838439 4.75709 0.873443 4.66545 1.59977 4.66545Z" fill="#8C96A2"/>
</svg>
