<svg width="13" height="13" viewBox="0 0 13 13" fill="none" xmlns="http://www.w3.org/2000/svg">
<path fill-rule="evenodd" clip-rule="evenodd" d="M2.72701 13V4.40258H0.0816137V13H2.72701ZM2.72701 1.35518C2.71125 0.585797 2.20077 0 1.37149 0C0.541991 0 0 0.585797 0 1.35518C0 2.10785 0.526235 2.71059 1.33976 2.71059H1.35552C2.20077 2.71059 2.72701 2.10785 2.72701 1.35518ZM7.04282 13V8.10161C7.04282 7.83945 7.06169 7.5773 7.13843 7.39042C7.34825 6.86637 7.82578 6.32389 8.6276 6.32389C9.678 6.32389 10.3368 6.92269 10.3368 8.10161V13H13V7.97053C13 5.27631 11.5682 4.02264 9.65836 4.02264C8.09245 4.02264 7.4051 4.90203 7.02344 5.50057L7.04256 4.3507H4.38392C4.42216 5.17376 4.38392 13 4.38392 13H7.04282Z" fill="white"/>
</svg>
