<svg width="12" height="16" viewBox="0 0 12 16" fill="none" xmlns="http://www.w3.org/2000/svg">
<path d="M6 0C4.4087 0 2.88258 0.663665 1.75736 1.845C0.632141 3.02633 0 4.62856 0 6.29921C0 10.5512 5.25 15.3543 5.5125 15.5591L6 16L6.4875 15.5591C6.75 15.3543 12 10.5512 12 6.29921C12 4.62856 11.3679 3.02633 10.2426 1.845C9.11742 0.663665 7.5913 0 6 0ZM6 9.44882C5.40666 9.44882 4.82664 9.2641 4.33329 8.91802C3.83994 8.57193 3.45542 8.08003 3.22836 7.50452C3.0013 6.929 2.94189 6.29572 3.05764 5.68476C3.1734 5.07379 3.45912 4.51259 3.87868 4.0721C4.29824 3.63162 4.83279 3.33165 5.41473 3.21013C5.99667 3.0886 6.59987 3.15097 7.14805 3.38936C7.69623 3.62774 8.16476 4.03144 8.49441 4.54939C8.82405 5.06734 9 5.67628 9 6.29921C9 7.13454 8.68393 7.93566 8.12132 8.52632C7.55871 9.11699 6.79565 9.44882 6 9.44882Z" fill="#175599"/>
</svg>
