<svg width="16" height="14" viewBox="0 0 16 14" fill="none" xmlns="http://www.w3.org/2000/svg">
<path d="M13 4H6V6H13V4Z" fill="#8C96A2"/>
<path fill-rule="evenodd" clip-rule="evenodd" d="M3 3L3 3.23077C1.34315 3.23077 0 4.57392 0 6.23077V11C0 12.6569 1.34315 14 3 14H9.92308C11.5799 14 12.9231 12.6569 12.9231 11H13C14.6569 11 16 9.65685 16 8L16 3C16 1.34315 14.6569 0 13 0H6C4.34315 0 3 1.34315 3 3ZM2 11L2 6.23077C2 5.67848 2.44772 5.23077 3 5.23077L3 8C3 9.65685 4.34315 11 6 11L10.9231 11C10.9231 11.5523 10.4754 12 9.92308 12H3C2.44772 12 2 11.5523 2 11ZM5 3V8C5 8.55229 5.44772 9 6 9L13 9C13.5523 9 14 8.55228 14 8L14 3C14 2.44771 13.5523 2 13 2L6 2C5.44771 2 5 2.44772 5 3Z" fill="#8C96A2"/>
</svg>
