<svg width="40" height="40" fill="none" xmlns="http://www.w3.org/2000/svg">
  <path d="M28.069 0h-15.44a3.509 3.509 0 00-3.508 3.509V36.49A3.509 3.509 0 0012.63 40h23.86a3.509 3.509 0 003.508-3.509V11.93h-7.017L28.068 0z" fill="#D7DADD"/>
  <path d="M28.07 0v8.421a3.509 3.509 0 003.51 3.509H40L28.07 0z" fill="#A8ADBA"/>
  <path d="M39.998 18.246l-9.123-6.316h9.123v6.316z" fill="#D4D6DD"/>
  <path opacity=".3" d="M9.121 34.386h20.351a2.105 2.105 0 002.105-2.105V19.649a2.105 2.105 0 00-2.105-2.105H9.122v16.842z" fill="#EA444E"/>
  <path d="M0 18.246c0-1.163.943-2.106 2.105-2.106H28.07c1.163 0 2.105.943 2.105 2.106v12.631a2.105 2.105 0 01-2.105 2.106H2.105A2.105 2.105 0 010 30.877V18.246z" fill="#EA444E"/>
  <path d="M9.624 21.965c.479 0 .893.08 1.243.24.355.159.628.385.818.679.19.293.286.64.286 1.042 0 .396-.095.743-.286 1.042a1.85 1.85 0 01-.818.679c-.35.154-.764.232-1.243.232H8.536v1.49h-1.25v-5.404h2.338zm-.07 2.895c.376 0 .662-.08.857-.24.196-.164.294-.396.294-.694 0-.304-.098-.536-.293-.695-.196-.165-.482-.247-.857-.247h-1.02v1.876h1.02zM12.864 21.965h2.454c.587 0 1.104.113 1.552.34.453.22.803.535 1.05.941.252.407.378.88.378 1.42 0 .541-.126 1.014-.378 1.421a2.508 2.508 0 01-1.05.95c-.448.22-.965.331-1.552.331h-2.454v-5.403zm2.393 4.377c.54 0 .97-.15 1.289-.448.324-.304.486-.713.486-1.227 0-.515-.162-.922-.486-1.22-.32-.304-.75-.455-1.29-.455h-1.142v3.35h1.143zM20.491 22.968v1.428h2.502V25.4H20.49v1.968h-1.25v-5.403h4.084v1.003H20.49z" fill="#fff"/>
</svg>