<svg width="16" height="16" viewBox="0 0 16 16" fill="none" xmlns="http://www.w3.org/2000/svg">
<path d="M14.9518 11.377C14.8704 11.3181 14.789 11.2519 14.715 11.193C14.3081 10.8691 13.879 10.5673 13.4572 10.2802C13.3684 10.2213 13.287 10.1624 13.1983 10.1035C12.6655 9.72809 12.1846 9.55141 11.7259 9.55141C11.1118 9.55141 10.579 9.89004 10.1425 10.5526C9.95014 10.847 9.71337 10.9869 9.41742 10.9869C9.24724 10.9869 9.04747 10.9354 8.8329 10.8397C7.10896 10.0594 5.87334 8.8668 5.17044 7.29146C4.83009 6.52588 4.94108 6.03267 5.54039 5.62779C5.88074 5.39959 6.51704 4.97262 6.47265 4.14815C6.42086 3.22061 4.35656 0.415919 3.48349 0.0993789C3.11354 -0.0331263 2.7288 -0.0331263 2.32926 0.0993789C1.33041 0.430642 0.612713 1.01955 0.250167 1.79986C-0.0975823 2.55072 -0.0827851 3.43409 0.294559 4.34691C1.3822 6.99701 2.90638 9.30849 4.83009 11.2151C6.71681 13.0849 9.02528 14.6087 11.7111 15.7571C11.9552 15.8601 12.2068 15.919 12.3918 15.9558C12.4584 15.9706 12.5102 15.9853 12.5472 15.9926C12.5694 16 12.5915 16 12.6137 16H12.6359C13.8938 16 15.4105 14.8516 15.8767 13.5487C16.2984 12.4003 15.5511 11.8334 14.9518 11.377Z" fill="#8C96A2"/>
</svg>
