<svg width="40" height="40" viewBox="0 0 40 40" fill="none" xmlns="http://www.w3.org/2000/svg">
<path opacity="0.3" fill-rule="evenodd" clip-rule="evenodd" d="M20 5C18.0302 5 16.0796 5.38798 14.2598 6.1418C12.4399 6.89562 10.7863 8.00051 9.3934 9.39339C8.00052 10.7863 6.89563 12.4399 6.14181 14.2597C5.38799 16.0796 5 18.0302 5 20C5 21.9698 5.38798 23.9204 6.1418 25.7402C6.89562 27.5601 8.00052 29.2137 9.39339 30.6066C10.7863 31.9995 12.4399 33.1044 14.2597 33.8582C16.0796 34.612 18.0302 35 20 35C21.9698 35 23.9204 34.612 25.7402 33.8582C27.5601 33.1044 29.2137 31.9995 30.6066 30.6066C31.9995 29.2137 33.1044 27.5601 33.8582 25.7403C34.612 23.9204 35 21.9698 35 20C35 18.0302 34.612 16.0796 33.8582 14.2598C33.1044 12.4399 31.9995 10.7863 30.6066 9.3934C29.2137 8.00052 27.5601 6.89563 25.7403 6.14181C23.9204 5.38799 21.9698 5 20 5ZM12.3463 1.5224C14.7729 0.517312 17.3736 0 20 0C22.6264 0 25.2272 0.517315 27.6537 1.52241C30.0802 2.5275 32.285 4.00069 34.1421 5.85787C35.9993 7.71504 37.4725 9.91982 38.4776 12.3463C39.4827 14.7728 40 17.3736 40 20C40 22.6264 39.4827 25.2272 38.4776 27.6537C37.4725 30.0802 35.9993 32.285 34.1421 34.1421C32.285 35.9993 30.0802 37.4725 27.6537 38.4776C25.2271 39.4827 22.6264 40 20 40C17.3736 40 14.7728 39.4827 12.3463 38.4776C9.91981 37.4725 7.71503 35.9993 5.85786 34.1421C4.00069 32.285 2.5275 30.0802 1.52241 27.6537C0.517313 25.2271 0 22.6264 0 20C0 17.3736 0.517318 14.7728 1.52241 12.3463C2.52751 9.91981 4.0007 7.71503 5.85787 5.85786C7.71505 4.00069 9.91983 2.5275 12.3463 1.5224Z" fill="#175599"/>
<path fill-rule="evenodd" clip-rule="evenodd" d="M9.90491 5.4883C10.8458 6.49883 10.7893 8.08074 9.77872 9.02158C7.97331 10.7025 6.61031 12.8027 5.81045 15.1362C5.01059 17.4697 4.79857 19.9644 5.19315 22.3994C5.58774 24.8344 6.57675 27.1345 8.0726 29.096C9.56844 31.0574 11.5249 32.6197 13.7688 33.6445C16.0126 34.6692 18.4746 35.1247 20.9365 34.9707C23.3985 34.8167 25.7845 34.0579 27.8831 32.7615C29.9817 31.4651 31.7283 29.6712 32.968 27.5386C34.2077 25.406 34.9024 23.0006 34.9904 20.5354C35.0397 19.1555 36.1982 18.0769 37.5781 18.1262C38.9579 18.1755 40.0365 19.334 39.9873 20.7138C39.8699 24.0007 38.9437 27.208 37.2907 30.0515C35.6377 32.8949 33.309 35.2869 30.5108 37.0154C27.7126 38.7439 24.5313 39.7556 21.2487 39.961C17.9661 40.1663 14.6835 39.5589 11.6917 38.1926C8.69992 36.8263 6.09125 34.7433 4.0968 32.128C2.10234 29.5127 0.783647 26.4459 0.257534 23.1992C-0.268578 19.9525 0.0141256 16.6262 1.0806 13.5149C2.14708 10.4036 3.96442 7.60331 6.37163 5.36211C7.38217 4.42127 8.96407 4.47776 9.90491 5.4883Z" fill="#175599"/>
</svg>
