<svg width="7" height="8" viewBox="0 0 7 8" fill="none" xmlns="http://www.w3.org/2000/svg">
<path d="M2.96718 5.14383C2.96718 4.78005 3.04809 4.47922 3.20989 4.24136C3.37873 4.0035 3.62143 3.74116 3.93801 3.45433C4.17016 3.24445 4.339 3.06955 4.44453 2.92964C4.55709 2.78272 4.61337 2.61832 4.61337 2.43643C4.61337 2.17758 4.50784 1.9747 4.29679 1.82778C4.09278 1.67387 3.81841 1.59692 3.4737 1.59692C3.14306 1.59692 2.84759 1.66688 2.58729 1.8068C2.33404 1.93972 2.11947 2.12861 1.94359 2.37346L0.666748 1.6284C0.962217 1.18067 1.35969 0.834369 1.85918 0.589513C2.36569 0.344657 2.96367 0.222229 3.65309 0.222229C4.46211 0.222229 5.10933 0.393628 5.59474 0.736426C6.08719 1.07922 6.33342 1.55494 6.33342 2.16359C6.33342 2.45042 6.28417 2.70227 6.18568 2.91914C6.09423 3.13601 5.97815 3.32141 5.83745 3.47532C5.70379 3.62223 5.52791 3.79363 5.30983 3.98951C5.04953 4.22038 4.85959 4.41626 4.74 4.57717C4.6204 4.73108 4.5606 4.91997 4.5606 5.14383H2.96718ZM3.76917 7.77778C3.48074 7.77778 3.23803 7.68684 3.04105 7.50494C2.85111 7.31606 2.75613 7.08869 2.75613 6.82285C2.75613 6.557 2.85111 6.33663 3.04105 6.16173C3.23099 5.97984 3.4737 5.8889 3.76917 5.8889C4.06464 5.8889 4.30734 5.97984 4.49729 6.16173C4.68723 6.33663 4.78221 6.557 4.78221 6.82285C4.78221 7.08869 4.68372 7.31606 4.48674 7.50494C4.29679 7.68684 4.0576 7.77778 3.76917 7.77778Z" fill="white"/>
</svg>
