<svg width="16" height="16" viewBox="0 0 16 16" fill="none" xmlns="http://www.w3.org/2000/svg">
<path d="M15.1517 10.0272L13.7576 8.97739C13.761 8.95596 13.7636 8.9344 13.7669 8.91283C13.7684 8.90402 13.7695 8.89507 13.7708 8.88639C13.7844 8.79485 13.7959 8.70344 13.8052 8.6119C13.8057 8.60702 13.8061 8.60241 13.8066 8.59752C13.8161 8.50205 13.8233 8.40644 13.828 8.31083C13.8284 8.30676 13.8286 8.30242 13.8287 8.29836C13.8332 8.2037 13.8358 8.10904 13.8359 8.01438C13.8359 8.00963 13.8362 8.00488 13.8362 8.00014C13.8362 7.99485 13.8359 7.98956 13.8359 7.98427C13.8359 7.96366 13.8363 7.94277 13.8361 7.92216C13.8359 7.91836 13.8361 7.91456 13.8361 7.91063C13.8354 7.8694 13.8336 7.82845 13.8322 7.78722C13.8311 7.76172 13.8299 7.7365 13.8287 7.71114C13.826 7.66069 13.8242 7.61024 13.8204 7.55993C13.8199 7.55477 13.8192 7.54948 13.8189 7.54433C13.8177 7.52955 13.8163 7.51463 13.8153 7.49998C13.8131 7.47327 13.81 7.44655 13.8074 7.41983C13.8068 7.414 13.8062 7.40817 13.8057 7.40248C13.8053 7.39922 13.805 7.39569 13.8046 7.39244C13.8032 7.37901 13.8021 7.36545 13.8008 7.35203C13.7989 7.33535 13.7979 7.31867 13.7959 7.30212C13.7949 7.29344 13.7935 7.2849 13.7927 7.27635C13.7915 7.26699 13.7899 7.25737 13.7887 7.24801C13.7803 7.17925 13.7708 7.11076 13.7598 7.04269C13.7589 7.03672 13.7585 7.03075 13.7576 7.02478L15.1536 5.97349C15.4849 5.77956 15.5983 5.35006 15.4071 5.01414L14.2531 2.98681C14.0619 2.65089 13.6383 2.53589 13.3072 2.72982L11.7113 3.43055C11.7025 3.42309 11.6929 3.41671 11.684 3.40953C11.6799 3.40614 11.6759 3.40275 11.6717 3.39936C11.6511 3.3824 11.6299 3.36613 11.6089 3.34945C11.586 3.33114 11.5633 3.3131 11.5403 3.29547C11.5215 3.28096 11.5025 3.26686 11.4836 3.25262C11.4749 3.24584 11.4658 3.23919 11.457 3.23255C11.4415 3.22102 11.4264 3.20895 11.4107 3.19756C11.4022 3.19118 11.3936 3.18495 11.3849 3.17857C11.3633 3.16298 11.3413 3.14792 11.3194 3.1326C11.3139 3.1288 11.3085 3.12473 11.3028 3.12094C11.2933 3.11429 11.2837 3.10765 11.2742 3.10114C11.2423 3.07903 11.2102 3.05733 11.1778 3.0359C11.1742 3.0336 11.1705 3.03129 11.1669 3.02885C11.1139 2.99413 11.0607 2.95996 11.0067 2.927C10.9929 2.9186 10.9791 2.91073 10.9652 2.90246C10.8492 2.83289 10.731 2.76698 10.6101 2.70568C10.6077 2.70446 10.6056 2.70337 10.603 2.70229C10.4465 2.62295 10.2857 2.55081 10.1214 2.48557C10.1169 2.48381 10.1123 2.48205 10.1078 2.48015C10.0868 2.47188 10.0659 2.46293 10.0449 2.45479L9.84531 0.702356C9.84544 0.314494 9.53551 0 9.15297 0H6.84546C6.46306 0 6.15313 0.314358 6.15313 0.702356L5.9535 2.45479C5.94414 2.45832 5.93518 2.46238 5.92582 2.46591C5.91499 2.47011 5.90403 2.47459 5.8932 2.47906C5.82942 2.50415 5.76631 2.53006 5.70374 2.55731C5.69251 2.56206 5.68127 2.56735 5.67018 2.57223C5.61349 2.59732 5.55706 2.62309 5.50117 2.64981C5.49529 2.65265 5.48941 2.65564 5.48352 2.65848C5.47617 2.66201 5.46881 2.6654 5.46146 2.66893C5.441 2.67896 5.42068 2.68927 5.40036 2.69958C5.35343 2.72331 5.30703 2.74772 5.2609 2.77281C5.22747 2.79085 5.19378 2.80861 5.16049 2.82719C5.13949 2.83913 5.1189 2.85187 5.09805 2.86394C5.09644 2.86476 5.09484 2.86584 5.09323 2.86679C5.08935 2.8691 5.08521 2.87072 5.08147 2.87303C5.07465 2.87696 5.06836 2.88157 5.06168 2.88537C4.98613 2.92985 4.91166 2.9761 4.83812 3.02411C4.8297 3.02953 4.82141 3.03496 4.81312 3.04052C4.80469 3.04608 4.796 3.05164 4.78745 3.0572C4.78504 3.05896 4.7825 3.06032 4.78022 3.06194C4.71738 3.10412 4.65548 3.14765 4.59411 3.19227C4.58555 3.19851 4.57686 3.20475 4.5683 3.21112C4.49971 3.26157 4.43205 3.31378 4.36547 3.36735C4.35397 3.37657 4.34233 3.38593 4.33097 3.39529C4.3164 3.40736 4.30142 3.41861 4.28698 3.43082L2.6932 2.73104C2.362 2.53711 1.93842 2.65225 1.74722 2.98817L0.59293 5.01509C0.401596 5.35128 0.515246 5.78078 0.846304 5.97471L2.24073 7.02465C2.23792 7.0416 2.23592 7.05869 2.23324 7.07564C2.2303 7.09503 2.2275 7.11429 2.22482 7.13368C2.21319 7.21424 2.20289 7.29466 2.19447 7.37508C2.19287 7.39095 2.19139 7.40668 2.18979 7.42268C2.18284 7.49469 2.17695 7.56684 2.17268 7.63885C2.17241 7.64442 2.17214 7.65011 2.17187 7.65567C2.17147 7.66177 2.17134 7.66788 2.17094 7.67398C2.17 7.68985 2.16933 7.70585 2.16853 7.72185C2.16479 7.8039 2.16278 7.88608 2.16251 7.96799C2.16238 7.97952 2.16158 7.99064 2.16158 8.00217C2.16158 8.01465 2.16225 8.02726 2.16225 8.03974C2.16225 8.04882 2.16211 8.05804 2.16225 8.06713C2.16225 8.07703 2.16198 8.08693 2.16225 8.09696C2.16278 8.13046 2.16425 8.1641 2.16546 8.19759C2.16679 8.24113 2.16907 8.28452 2.17134 8.32778C2.17334 8.36427 2.17481 8.40061 2.17749 8.43696C2.17789 8.44211 2.17829 8.4474 2.17856 8.45255C2.1799 8.47059 2.1815 8.48863 2.18297 8.50639C2.18484 8.52958 2.18752 8.55264 2.18966 8.57569C2.1946 8.6279 2.19955 8.67998 2.20583 8.73165C2.20583 8.73233 2.2061 8.73314 2.2061 8.73382C2.21546 8.81099 2.22629 8.88774 2.23873 8.9641C2.2394 8.96844 2.23966 8.97291 2.24046 8.97752L0.846438 10.0275C0.515113 10.2214 0.401729 10.6509 0.593064 10.9867L1.74695 13.014C1.93815 13.3501 2.36174 13.4651 2.69279 13.2711L4.28631 12.5719C4.29728 12.5811 4.30891 12.5888 4.31987 12.5978C4.32174 12.5996 4.32388 12.6008 4.32576 12.6023C4.32576 12.6025 4.32602 12.6025 4.32602 12.6027C4.34314 12.6168 4.36079 12.6303 4.37817 12.6443C4.40544 12.6661 4.43272 12.688 4.4604 12.7093C4.47644 12.7217 4.49262 12.7337 4.5088 12.746C4.53006 12.762 4.55119 12.7783 4.57271 12.7942C4.57512 12.7959 4.57726 12.7976 4.57953 12.7995C4.58969 12.8069 4.59959 12.8144 4.60988 12.8217C4.63462 12.8396 4.65989 12.8568 4.68489 12.8742C4.68703 12.8759 4.6893 12.8773 4.69144 12.8787C4.70134 12.8857 4.7111 12.8926 4.72099 12.8993C4.80857 12.9598 4.89762 13.0182 4.98867 13.0738C5.00458 13.0834 5.0205 13.0928 5.03641 13.102C5.15046 13.1704 5.26678 13.2351 5.38565 13.2957C5.38966 13.2978 5.39381 13.2996 5.39782 13.3018C5.57779 13.3926 5.7627 13.4754 5.95257 13.5475L6.15206 15.2975C6.15206 15.6852 6.46199 15.9999 6.84452 15.9999L9.15244 16C9.5347 15.9999 9.8449 15.6856 9.8449 15.2975L10.0445 13.5472C10.0543 13.5436 10.0636 13.5394 10.0734 13.5357C10.083 13.5321 10.0927 13.5279 10.1022 13.5241C10.1665 13.4988 10.2304 13.4727 10.2936 13.4453C10.3061 13.44 10.3184 13.4341 10.3307 13.4287C10.3871 13.4036 10.4432 13.3781 10.4986 13.3516C10.5038 13.3488 10.5092 13.3463 10.5144 13.3436C10.5148 13.3434 10.5153 13.3431 10.5158 13.3429C10.5217 13.34 10.5279 13.3374 10.5338 13.3343C10.5556 13.3236 10.5773 13.3128 10.5989 13.3018C10.645 13.2786 10.6905 13.2545 10.7357 13.23C10.7702 13.2115 10.8047 13.1934 10.8387 13.1743C10.8561 13.1645 10.8732 13.154 10.8905 13.1438C10.8962 13.1405 10.9021 13.1369 10.9079 13.1335C10.9108 13.1319 10.9139 13.1306 10.9167 13.1289C10.9218 13.126 10.9265 13.1226 10.9315 13.1198C11.0102 13.0735 11.0878 13.0254 11.1643 12.9754C11.1699 12.9717 11.1754 12.9679 11.181 12.9645C11.1929 12.9565 11.205 12.949 11.2167 12.941C11.2813 12.8979 11.3452 12.853 11.4083 12.8071C11.4146 12.8026 11.4206 12.7981 11.4268 12.7934C11.4978 12.7411 11.568 12.6873 11.6367 12.6317C11.6461 12.6242 11.6556 12.6168 11.6647 12.6093C11.6802 12.5963 11.6962 12.5841 11.7117 12.5712L13.3055 13.2709C13.6368 13.4649 14.0603 13.3497 14.2513 13.0137L15.4054 10.9865C15.5963 10.6506 15.4829 10.2211 15.1517 10.0272ZM8.00002 10.4429C6.6699 10.4429 5.59156 9.34925 5.59156 8C5.59156 6.65075 6.6699 5.55701 8.00002 5.55701C9.33013 5.55701 10.4086 6.65089 10.4086 8C10.4086 9.34911 9.33013 10.4429 8.00002 10.4429Z" fill="#8C96A2"/>
</svg>
