<svg width="180" height="28" viewBox="0 0 180 28" fill="none" xmlns="http://www.w3.org/2000/svg">
<path d="M4.50158 22.5783V5.41351H8.32855L10.8946 3.11003L8.32855 0.806549H1.45797C1.07115 0.806977 0.700312 0.964544 0.426936 1.24462C0.153559 1.5247 6.26488e-07 1.90439 8.52047e-07 2.30026V25.6899C-0.000206279 25.886 0.0373533 26.0802 0.11053 26.2614C0.183707 26.4427 0.291068 26.6073 0.426474 26.7461C0.561879 26.8848 0.722673 26.9948 0.899665 27.0699C1.07666 27.145 1.26637 27.1837 1.45797 27.1837H11.3674V22.5783H4.50158Z" fill="#D12E56"/>
<path d="M21.2721 5.41348V22.5783H17.4452L14.8855 24.8818L17.4515 27.1853H24.3221C24.5137 27.1853 24.7034 27.1466 24.8804 27.0715C25.0574 26.9964 25.2181 26.8864 25.3536 26.7477C25.489 26.6089 25.5963 26.4443 25.6695 26.263C25.7427 26.0818 25.7802 25.8876 25.78 25.6915V2.30185C25.78 1.90597 25.6265 1.52629 25.3531 1.24621C25.0797 0.966131 24.7089 0.808564 24.3221 0.808136H14.4126V5.4151L21.2721 5.41348Z" fill="#D12E56"/>
<path d="M45.0818 16.2808L41.4377 15.2807C40.0937 14.8775 39.1654 14.3269 38.6526 13.6289C38.1398 12.931 37.8829 11.9658 37.8818 10.7334C37.8818 9.17628 38.351 8.07455 39.2894 7.42824C40.2277 6.78193 41.8323 6.45932 44.103 6.46039C46.73 6.50233 48.9818 6.69482 50.8585 7.03787L50.5622 9.91884C48.0729 9.87905 46.1967 9.85862 44.9337 9.85754C44.2417 9.85754 43.7626 9.85754 43.4962 9.87205C43.2273 9.88313 42.96 9.91822 42.6971 9.97691C42.4291 10.0382 42.2668 10.1382 42.2085 10.2673C42.1388 10.4556 42.1082 10.6566 42.1186 10.8576C42.1181 10.9487 42.1228 11.0398 42.1328 11.1303C42.1431 11.2109 42.1689 11.2888 42.2085 11.3593C42.2463 11.4287 42.2825 11.4835 42.3109 11.5206C42.3554 11.5748 42.4087 11.6206 42.4685 11.6561C42.529 11.698 42.5934 11.7337 42.6608 11.7626C42.7097 11.7836 42.7979 11.819 42.9272 11.8674C43.0564 11.9158 43.1542 11.9545 43.2235 11.9755L43.6081 12.082C43.7957 12.132 43.9391 12.1659 44.0384 12.1868L47.7708 13.2176C49.0748 13.6015 50.0032 14.1118 50.5559 14.7484C51.1086 15.385 51.385 16.3303 51.385 17.5842C51.385 19.364 50.8817 20.5716 49.875 21.2072C48.8683 21.8427 47.1398 22.1605 44.6894 22.1605C42.4973 22.1747 40.3079 22.0031 38.1435 21.6476L38.4099 18.7343C39.1202 18.7784 40.8088 18.7989 43.4757 18.7956C44.9962 18.7956 45.9887 18.73 46.4531 18.5988C46.6594 18.559 46.8441 18.443 46.9723 18.2729C47.1004 18.1028 47.1631 17.8904 47.1482 17.6761C47.1488 17.5845 47.144 17.493 47.134 17.4019C47.1242 17.3218 47.0991 17.2445 47.0599 17.1745C47.0267 17.1163 46.987 17.0622 46.9417 17.0132C46.8833 16.9602 46.8187 16.9146 46.7494 16.8777C46.6596 16.8277 46.5918 16.7873 46.5414 16.7551C46.4509 16.7082 46.3571 16.6683 46.2608 16.6357C46.1221 16.5841 46.0134 16.5502 45.9345 16.5292L45.52 16.4228C45.3709 16.3859 45.2245 16.3384 45.0818 16.2808Z" fill="#175598"/>
<path d="M53.2197 10.2173L52.8052 7.18469C55.3172 6.71105 57.8655 6.46759 60.4197 6.45718C62.3931 6.45718 63.8448 6.86691 64.7747 7.68635C65.7047 8.5058 66.1686 9.92531 66.1665 11.9449V21.8315H62.6989L62.2544 19.557C60.7938 21.3153 58.9965 22.1944 56.8623 22.1944C55.4595 22.1944 54.3141 21.818 53.4262 21.0653C52.5383 20.3125 52.0938 19.2564 52.0928 17.8972V16.3809C52.0928 15.1872 52.4868 14.2597 53.2781 13.5902C54.0693 12.9208 55.1695 12.5901 56.566 12.5901H61.78V11.9239C61.7611 11.1561 61.5882 10.641 61.2614 10.3786C60.9367 10.1157 60.3157 9.98176 59.381 9.98176C57.7618 9.97639 55.708 10.0549 53.2197 10.2173ZM56.4194 16.7067V17.281C56.4194 18.3133 56.9921 18.829 58.1374 18.8279C59.3227 18.8279 60.5374 18.344 61.7816 17.3761V15.2791H57.8411C56.8933 15.3017 56.4194 15.7776 56.4194 16.7067Z" fill="#175598"/>
<path d="M77.43 3.28101H74.6732C73.9429 3.28101 73.4344 3.42243 73.1475 3.70525C72.8606 3.98808 72.7177 4.49352 72.7188 5.22156V6.88948H76.117V9.8898H72.7188V21.8315H68.3055V9.88336H66.8601V7.03466L68.3055 6.88303V4.60858C68.3055 1.53512 69.9048 -0.00107482 73.1034 5.64212e-07C75.1776 5.64212e-07 76.758 0.101088 77.8445 0.303261L77.43 3.28101Z" fill="#175598"/>
<path d="M86.2864 15.8631H81.0062C81.1449 16.9535 81.4659 17.6858 81.9692 18.0601C82.4726 18.4343 83.3069 18.6214 84.4722 18.6214C86.294 18.6043 88.1138 18.4913 89.9242 18.2827L90.3388 21.0717C88.8172 21.8245 86.6941 22.2009 83.9694 22.2009C81.2237 22.2009 79.2682 21.5949 78.1029 20.3829C76.9375 19.171 76.3554 17.167 76.3564 14.371C76.3564 11.4405 76.9244 9.38922 78.0603 8.21705C79.1962 7.04488 81.1071 6.45826 83.7929 6.45718C86.2233 6.45718 87.9813 6.88734 89.0668 7.74765C90.1522 8.60796 90.7044 9.91509 90.7234 11.6691C90.7234 13.066 90.3734 14.1096 89.672 14.8081C88.9706 15.5066 87.8405 15.8631 86.2864 15.8631ZM80.9274 13.1644H85.0743C85.6086 13.1644 85.968 13.0337 86.1556 12.7692C86.3431 12.5046 86.4377 12.1239 86.4377 11.619C86.4377 10.9093 86.2596 10.4184 85.9034 10.1463C85.5472 9.87423 84.8925 9.73658 83.9395 9.73335C82.812 9.73335 82.0417 9.96025 81.6288 10.4141C81.2158 10.8679 80.9789 11.783 80.9179 13.1595L80.9274 13.1644Z" fill="#175598"/>
<path d="M95.2802 6.88304L95.6049 9.09618C97.7181 7.33577 99.8023 6.45611 101.858 6.45718C103.181 6.45718 104.193 6.81099 104.893 7.5186C105.594 8.2262 105.945 9.25696 105.946 10.6109V21.8315H101.59V12.0062C101.59 11.3384 101.486 10.877 101.274 10.6286C101.063 10.3802 100.698 10.2479 100.171 10.2479C99.2422 10.2479 97.8893 10.7033 96.1125 11.6142V21.8315H91.7244V6.88304H95.2802Z" fill="#175598"/>
<path d="M116.931 15.8631H111.663C111.802 16.9535 112.123 17.6858 112.626 18.0601C113.13 18.4343 113.963 18.6214 115.129 18.6214C116.949 18.6041 118.766 18.4911 120.575 18.2827L120.989 21.0717C119.468 21.8245 117.345 22.2008 114.62 22.2008C111.874 22.2008 109.919 21.5949 108.753 20.3829C107.588 19.1709 107.005 17.1691 107.005 14.3774C107.005 11.447 107.573 9.39567 108.709 8.2235C109.845 7.05133 111.756 6.4647 114.442 6.46362C116.87 6.46362 118.628 6.89378 119.714 7.75409C120.801 8.6144 121.354 9.91938 121.374 11.669C121.374 13.066 121.022 14.1096 120.323 14.8081C119.623 15.5066 118.491 15.8631 116.931 15.8631ZM111.572 13.1644H115.719C116.251 13.1644 116.612 13.0337 116.8 12.7692C116.987 12.5046 117.08 12.1239 117.08 11.619C117.08 10.9093 116.903 10.4184 116.548 10.1463C116.192 9.87422 115.54 9.73657 114.59 9.73334C113.462 9.73334 112.692 9.96024 112.279 10.4141C111.863 10.8625 111.628 11.7852 111.568 13.1595L111.572 13.1644Z" fill="#175598"/>
<path d="M127.898 9.88333V16.9486C127.898 17.5148 128.017 17.9165 128.252 18.131C128.487 18.3456 128.906 18.4633 129.497 18.4633H131.365L131.838 21.5879C130.713 21.9911 129.34 22.1933 127.72 22.1944C126.398 22.1944 125.37 21.818 124.638 21.0652C123.906 20.3124 123.538 19.2564 123.535 17.8971V9.88333H122.061V7.03463L123.535 6.883V2.69867H127.898V6.883H131.956V9.88333H127.898Z" fill="#175598"/>
<path d="M137.208 6.88299L137.524 9.06548C137.996 8.16861 138.608 7.16366 139.741 6.83782C141.002 6.47326 142.225 6.4894 143.332 6.4894C146.694 6.4894 148.376 9.15689 148.376 14.4919C148.376 17.3632 147.926 19.3693 147.028 20.5103C146.13 21.6513 144.722 22.2223 142.805 22.2234C140.83 22.2234 139.201 21.7395 137.919 20.7716C138.017 21.8401 138.047 22.914 138.007 23.9865V27.5949H133.651V6.88299H137.208ZM138.007 11.4319V18.2826C139.547 18.687 140.65 18.8892 141.317 18.8892C142.285 18.8892 142.952 18.6063 143.318 18.0407C143.683 17.475 143.866 16.2921 143.866 14.4919C143.866 12.7336 143.698 11.5464 143.362 10.9302C143.028 10.3156 142.433 10.0059 141.584 10.0059C140.624 10.0059 139.562 9.60748 138.007 11.4319Z" fill="#175598"/>
<path d="M150.595 10.2173L150.179 7.18469C152.691 6.71105 155.24 6.46758 157.795 6.45718C159.768 6.45718 161.219 6.86691 162.148 7.68635C163.077 8.5058 163.542 9.92531 163.542 11.9449V21.8315H160.074L159.629 19.557C158.169 21.3153 156.371 22.1944 154.237 22.1944C152.834 22.1944 151.689 21.818 150.801 21.0653C149.913 20.3125 149.469 19.2564 149.468 17.8972V16.3809C149.468 15.1872 149.863 14.2597 150.653 13.5902C151.443 12.9208 152.544 12.5901 153.943 12.5901H159.157V11.9239C159.137 11.1561 158.964 10.641 158.638 10.3786C158.312 10.1157 157.692 9.98176 156.758 9.98176C155.14 9.97639 153.086 10.0549 150.595 10.2173ZM153.794 16.7067V17.281C153.794 18.3133 154.367 18.829 155.512 18.8279C156.698 18.8279 157.912 18.344 159.157 17.3761V15.2791H155.216C154.27 15.3017 153.798 15.7776 153.799 16.7067H153.794Z" fill="#175598"/>
<path d="M180 6.88303L174.814 22.046C174.55 22.8278 174.208 23.5796 173.793 24.2898C173.358 25.0156 172.835 25.6827 172.237 26.2755C171.571 26.9328 170.76 27.4164 169.873 27.6853C168.861 27.9947 167.795 28.0772 166.749 27.9273L166.394 25.2899C167.578 24.9673 168.506 24.5479 169.18 24.0317C169.873 23.4914 170.416 22.7752 170.756 21.954L170.816 21.8347H169.982C169.25 21.8347 168.778 21.4701 168.563 20.7426L163.794 6.88625H168.475L171.2 16.5567C171.378 17.2664 171.526 18.0085 171.645 18.8005H172.031C172.089 18.5585 172.187 18.1821 172.327 17.6713C172.464 17.1551 172.564 16.7873 172.622 16.5631L175.319 6.8927L180 6.88303Z" fill="#175598"/>
</svg>
