<svg width="276" height="42" viewBox="0 0 276 42" fill="none" xmlns="http://www.w3.org/2000/svg">
<path d="M7.32447 34.6627V7.33471H13.5513L17.7264 3.66736L13.5513 0H2.37225C1.74285 0.000680642 1.13947 0.251542 0.694663 0.697454C0.249854 1.14337 1.01935e-06 1.74786 1.38636e-06 2.37813V39.6167C-0.000335634 39.9288 0.0607772 40.238 0.179843 40.5265C0.298908 40.8151 0.473594 41.0772 0.693911 41.2981C0.914228 41.519 1.17585 41.6942 1.46384 41.8137C1.75182 41.9333 2.0605 41.9948 2.37225 41.9948H18.4958V34.6627H7.32447Z" fill="#D12E56"/>
<path d="M34.6113 7.3347V34.6627H28.3845L24.2196 38.33L28.3947 41.9974H39.5738C39.8855 41.9974 40.1942 41.9358 40.4822 41.8163C40.7702 41.6967 41.0318 41.5215 41.2521 41.3007C41.4724 41.0798 41.6471 40.8176 41.7662 40.5291C41.8852 40.2406 41.9464 39.9314 41.946 39.6192V2.3807C41.946 1.75042 41.6962 1.14593 41.2514 0.700018C40.8066 0.254106 40.2032 0.00324412 39.5738 0.00256348H23.4502V7.33727L34.6113 7.3347Z" fill="#D12E56"/>
<path d="M69.1259 24.4213L63.5383 22.9211C61.4775 22.3162 60.054 21.4903 59.2678 20.4434C58.4815 19.3965 58.0875 17.9488 58.0859 16.1002C58.0859 13.7645 58.8053 12.1119 60.2441 11.1424C61.683 10.1729 64.1433 9.689 67.6251 9.69062C71.6531 9.75353 75.1059 10.0423 77.9836 10.5568L77.5292 14.8783C73.7122 14.8186 70.8354 14.788 68.8988 14.7863C67.8378 14.7863 67.1031 14.7863 66.6946 14.8081C66.2824 14.8247 65.8724 14.8774 65.4693 14.9654C65.0584 15.0573 64.8095 15.2074 64.7201 15.4009C64.6133 15.6834 64.5664 15.9849 64.5823 16.2865C64.5815 16.4231 64.5887 16.5597 64.6041 16.6954C64.62 16.8164 64.6594 16.9332 64.7201 17.039C64.7781 17.1431 64.8337 17.2253 64.8772 17.281C64.9454 17.3622 65.0272 17.431 65.1189 17.4842C65.2116 17.5471 65.3104 17.6006 65.4137 17.6439C65.4886 17.6754 65.624 17.7286 65.8222 17.8012C66.0203 17.8738 66.1702 17.9319 66.2765 17.9633L66.8662 18.123C67.1538 18.198 67.3737 18.2488 67.526 18.2803L73.249 19.8264C75.2485 20.4023 76.672 21.1677 77.5195 22.1226C78.367 23.0776 78.7908 24.4955 78.7908 26.3763C78.7908 29.046 78.019 30.8575 76.4755 31.8108C74.9319 32.7641 72.2815 33.2408 68.5242 33.2408C65.163 33.262 61.8059 33.0047 58.4871 32.4714L58.8956 28.1015C59.9847 28.1677 62.574 28.1983 66.6632 28.1935C68.9946 28.1935 70.5164 28.0951 71.2286 27.8983C71.5448 27.8386 71.8281 27.6646 72.0246 27.4094C72.2211 27.1542 72.3171 26.8356 72.2944 26.5142C72.2952 26.3768 72.288 26.2395 72.2726 26.1029C72.2576 25.9828 72.219 25.8668 72.159 25.7617C72.108 25.6744 72.0472 25.5933 71.9778 25.5198C71.8881 25.4403 71.7891 25.372 71.6829 25.3165C71.5452 25.2415 71.4412 25.181 71.3639 25.1326C71.2251 25.0624 71.0813 25.0025 70.9337 24.9536C70.721 24.8762 70.5543 24.8254 70.4334 24.7939L69.7978 24.6342C69.5692 24.5788 69.3447 24.5077 69.1259 24.4213Z" fill="white"/>
<path d="M81.604 15.3259L80.9684 10.777C84.8201 10.0666 88.7275 9.70139 92.644 9.68579C95.6699 9.68579 97.8957 10.3004 99.3217 11.5295C100.748 12.7587 101.459 14.888 101.456 17.9174V32.7472H96.1387L95.4572 29.3356C93.2176 31.9729 90.4616 33.2916 87.1893 33.2916C85.0383 33.2916 83.2821 32.727 81.9206 31.5979C80.5591 30.4687 79.8776 28.8847 79.876 26.8458V24.5713C79.876 22.7808 80.4802 21.3895 81.6934 20.3854C82.9067 19.3812 84.5936 18.8852 86.7349 18.8852H94.7297V17.8859C94.7007 16.7342 94.4357 15.9615 93.9346 15.5679C93.4367 15.1735 92.4845 14.9727 91.0513 14.9727C88.5684 14.9646 85.4193 15.0824 81.604 15.3259ZM86.5101 25.0601V25.9215C86.5101 27.47 87.3882 28.2435 89.1444 28.2419C90.9619 28.2419 92.8245 27.516 94.7321 26.0642V22.9187H88.6901C87.2368 22.9526 86.5101 23.6664 86.5101 25.0601Z" fill="white"/>
<path d="M118.726 4.92152H114.499C113.379 4.92152 112.599 5.13364 112.159 5.55788C111.719 5.98212 111.5 6.74028 111.502 7.83233V10.3342H116.712V14.8347H111.502V32.7472H104.735V14.825H102.519V10.552L104.735 10.3245V6.91286C104.735 2.30268 107.187 -0.00161224 112.092 8.46317e-07C115.272 8.46317e-07 117.695 0.151632 119.361 0.454891L118.726 4.92152Z" fill="white"/>
<path d="M132.306 23.7946H124.21C124.422 25.4303 124.915 26.5288 125.686 27.0901C126.458 27.6515 127.737 27.9322 129.524 27.9322C132.318 27.9065 135.108 27.7369 137.884 27.424L138.52 31.6076C136.187 32.7367 132.931 33.3013 128.753 33.3013C124.543 33.3013 121.545 32.3923 119.758 30.5744C117.971 28.7565 117.078 25.7505 117.08 21.5565C117.08 17.1608 117.951 14.0839 119.693 12.3256C121.434 10.5673 124.364 9.6874 128.483 9.68579C132.209 9.68579 134.905 10.331 136.569 11.6215C138.234 12.912 139.08 14.8727 139.109 17.5036C139.109 19.599 138.573 21.1645 137.497 22.2122C136.422 23.2599 134.689 23.7946 132.306 23.7946ZM124.089 19.7466H130.447C131.267 19.7466 131.818 19.5506 132.105 19.1538C132.393 18.757 132.538 18.1859 132.538 17.4286C132.538 16.3639 132.265 15.6276 131.719 15.2195C131.173 14.8114 130.169 14.6049 128.707 14.6C126.979 14.6 125.798 14.9404 125.164 15.6211C124.531 16.3018 124.168 17.6746 124.074 19.7393L124.089 19.7466Z" fill="white"/>
<path d="M146.097 10.3246L146.595 13.6443C149.835 11.0037 153.031 9.68418 156.182 9.68579C158.211 9.68579 159.762 10.2165 160.837 11.2779C161.912 12.3393 162.45 13.8855 162.451 15.9163V32.7472H155.771V18.0093C155.771 17.0076 155.612 16.3156 155.288 15.9429C154.964 15.5703 154.403 15.3719 153.596 15.3719C152.172 15.3719 150.097 16.055 147.373 17.4213V32.7472H140.645V10.3246H146.097Z" fill="white"/>
<path d="M179.294 23.7946H171.217C171.43 25.4302 171.922 26.5288 172.694 27.0901C173.467 27.6515 174.743 27.9321 176.531 27.9321C179.322 27.9062 182.109 27.7366 184.882 27.424L185.517 31.6075C183.184 32.7367 179.929 33.3013 175.751 33.3013C171.541 33.3013 168.542 32.3923 166.755 30.5744C164.969 28.7564 164.075 25.7537 164.075 21.5661C164.075 17.1705 164.946 14.0935 166.688 12.3353C168.429 10.577 171.359 9.69705 175.478 9.69543C179.201 9.69543 181.896 10.3407 183.562 11.6311C185.228 12.9216 186.076 14.8791 186.107 17.5036C186.107 19.599 185.568 21.1645 184.495 22.2122C183.422 23.2598 181.687 23.7946 179.294 23.7946ZM171.077 19.7466H177.435C178.252 19.7466 178.806 19.5506 179.093 19.1537C179.381 18.7569 179.523 18.1859 179.523 17.4286C179.523 16.3639 179.251 15.6275 178.707 15.2194C178.162 14.8113 177.161 14.6049 175.705 14.6C173.976 14.6 172.795 14.9404 172.162 15.6211C171.524 16.2937 171.164 17.6778 171.072 19.7393L171.077 19.7466Z" fill="white"/>
<path d="M196.111 14.825V25.423C196.111 26.2723 196.294 26.8747 196.654 27.1966C197.014 27.5184 197.657 27.695 198.564 27.695H201.428L202.153 32.3818C200.427 32.9867 198.322 33.29 195.837 33.2916C193.811 33.2916 192.236 32.727 191.113 31.5979C189.99 30.4687 189.426 28.8846 189.421 26.8457V14.825H187.161V10.552L189.421 10.3245V4.04803H196.111V10.3245H202.334V14.825H196.111Z" fill="white"/>
<path d="M210.386 10.3245L210.87 13.5982C211.595 12.2529 212.533 10.7455 214.27 10.2567C216.204 9.70991 218.079 9.73411 219.776 9.73411C224.932 9.73411 227.51 13.7354 227.51 21.7379C227.51 26.0448 226.821 29.054 225.443 30.7655C224.066 32.4769 221.907 33.3335 218.968 33.3351C215.939 33.3351 213.442 32.6092 211.476 31.1574C211.627 32.7602 211.672 34.3711 211.612 35.9797V41.3924H204.932V10.3245H210.386ZM211.612 17.1478V27.424C213.972 28.0305 215.664 28.3337 216.687 28.3337C218.171 28.3337 219.193 27.9095 219.754 27.061C220.315 26.2125 220.595 24.4382 220.595 21.7379C220.595 19.1005 220.337 17.3196 219.822 16.3953C219.309 15.4734 218.398 15.0089 217.095 15.0089C215.624 15.0089 213.995 14.4112 211.612 17.1478Z" fill="white"/>
<path d="M230.912 15.3259L230.274 10.777C234.126 10.0666 238.034 9.70139 241.952 9.68579C244.977 9.68579 247.203 10.3004 248.627 11.5295C250.051 12.7587 250.763 14.888 250.763 17.9174V32.7472H245.446L244.765 29.3356C242.525 31.9729 239.769 33.2916 236.497 33.2916C234.346 33.2916 232.59 32.727 231.228 31.5979C229.867 30.4687 229.185 28.8847 229.184 26.8458V24.5713C229.184 22.7808 229.79 21.3895 231.001 20.3854C232.212 19.3812 233.901 18.8852 236.045 18.8852H244.04V17.8859C244.009 16.7342 243.744 15.9615 243.245 15.5679C242.744 15.1735 241.795 14.9727 240.361 14.9727C237.882 14.9646 234.732 15.0824 230.912 15.3259ZM235.818 25.0601V25.9215C235.818 27.47 236.696 28.2435 238.452 28.2419C240.27 28.2419 242.132 27.516 244.04 26.0642V22.9187H237.998C236.548 22.9526 235.823 23.6664 235.825 25.0601H235.818Z" fill="white"/>
<path d="M276 10.3245L268.049 33.069C267.643 34.2416 267.118 35.3694 266.483 36.4347C265.815 37.5234 265.014 38.5241 264.097 39.4132C263.076 40.3992 261.832 41.1246 260.472 41.528C258.92 41.9921 257.286 42.1158 255.682 41.8909L255.138 37.9348C256.952 37.4509 258.376 36.8218 259.409 36.0475C260.472 35.2371 261.305 34.1628 261.825 32.9311L261.917 32.752H260.639C259.517 32.752 258.792 32.2052 258.464 31.1139L251.15 10.3294H258.328L262.507 24.835C262.78 25.8996 263.007 27.0127 263.189 28.2007H263.781C263.869 27.8378 264.021 27.2732 264.235 26.507C264.445 25.7327 264.598 25.181 264.687 24.8447L268.822 10.339L276 10.3245Z" fill="white"/>
</svg>
