<svg width="11" height="12" viewBox="0 0 11 12" fill="none" xmlns="http://www.w3.org/2000/svg">
<path d="M3.50649 11.5C3.06959 11.5003 2.64241 11.3718 2.27903 11.1305C1.91565 10.8893 1.63241 10.5463 1.46517 10.145C1.29792 9.74359 1.2542 9.3019 1.33953 8.87581C1.42485 8.44971 1.63539 8.05838 1.9445 7.75133L5.06849 4.64483C5.20657 4.50753 5.39386 4.43039 5.58914 4.43039C5.78443 4.4304 5.97171 4.50754 6.10979 4.64486C6.24788 4.78217 6.32545 4.9684 6.32545 5.16259C6.32546 5.35678 6.24788 5.54302 6.1098 5.68033L2.98583 8.78682C2.91691 8.85469 2.86215 8.93543 2.8247 9.02441C2.78726 9.11338 2.76786 9.20884 2.76762 9.30529C2.76738 9.40174 2.78631 9.49729 2.82332 9.58645C2.86033 9.67561 2.91469 9.75662 2.98327 9.82482C3.05186 9.89302 3.13332 9.94708 3.22298 9.98388C3.31264 10.0207 3.40872 10.0395 3.50572 10.0393C3.60272 10.0391 3.69871 10.0198 3.78819 9.98253C3.87767 9.9453 3.95886 9.89085 4.02712 9.82232L8.19246 5.68033C8.39765 5.4764 8.56042 5.23426 8.67148 4.96774C8.78253 4.70123 8.83969 4.41558 8.83969 4.12709C8.83969 3.83861 8.78253 3.55295 8.67148 3.28644C8.56042 3.01993 8.39765 2.77779 8.19246 2.57385C7.77175 2.17418 7.21231 1.95116 6.63047 1.95116C6.04864 1.95116 5.48919 2.17418 5.06849 2.57385L1.9445 5.68033C1.87612 5.74833 1.79495 5.80226 1.70562 5.83906C1.61628 5.87586 1.52053 5.8948 1.42383 5.8948C1.32713 5.8948 1.23138 5.87586 1.14205 5.83907C1.05271 5.80227 0.971537 5.74833 0.903162 5.68034C0.834787 5.61235 0.780549 5.53163 0.743546 5.44279C0.706543 5.35395 0.687498 5.25874 0.6875 5.16258C0.687502 5.06643 0.70655 4.97121 0.743557 4.88238C0.780564 4.79354 0.834805 4.71283 0.903182 4.64483L4.02712 1.53835C5.42086 0.153884 7.84582 0.153884 9.23377 1.53835C9.57576 1.87824 9.84705 2.28181 10.0321 2.726C10.2172 3.17018 10.3125 3.64628 10.3125 4.12709C10.3125 4.6079 10.2172 5.084 10.0321 5.52818C9.84705 5.97237 9.57576 6.37594 9.23377 6.71583L5.06849 10.8578C4.86342 11.0618 4.61989 11.2235 4.35185 11.3337C4.08381 11.4439 3.79654 11.5004 3.50649 11.5Z" fill="#175599"/>
</svg>
