<svg width="60" height="60" viewBox="0 0 60 60" fill="none" xmlns="http://www.w3.org/2000/svg">
<path d="M10.9169 49.5242V10.4794H20.1979L26.4208 5.23974L20.1979 0H3.53578C2.59768 0.000972466 1.69835 0.359391 1.03538 0.996487C0.372401 1.63358 1.51932e-06 2.49725 2.06633e-06 3.39775V56.6022C-0.000500254 57.0483 0.0905869 57.49 0.268051 57.9022C0.445516 58.3144 0.705881 58.689 1.03426 59.0046C1.36263 59.3202 1.75258 59.5705 2.18181 59.7413C2.61104 59.9121 3.07113 60 3.53578 60H27.5676V49.5242H10.9169Z" fill="#D12E56"/>
<path d="M49.068 10.4758V49.5205H39.787L33.5794 54.7603L39.8023 60H56.4644C56.9291 60 57.3892 59.9121 57.8184 59.7413C58.2476 59.5705 58.6376 59.3201 58.9659 59.0046C59.2943 58.689 59.5547 58.3144 59.7321 57.9022C59.9096 57.49 60.0007 57.0483 60.0002 56.6022V3.39775C60.0002 2.49725 59.6278 1.63358 58.9648 0.996487C58.3018 0.359391 57.4025 0.000972466 56.4644 0H32.4326V10.4794L49.068 10.4758Z" fill="#D12E56"/>
</svg>
