<svg width="0" height="0" class="hidden">
  <symbol fill="none" xmlns="http://www.w3.org/2000/svg" viewBox="0 0 6 13" id="facebook">
    <path d="M5.938 4.21H4V2.86c0-.506.316-.625.538-.625h1.367V.008L4.024 0c-2.09 0-2.565 1.661-2.565 2.725v1.484H.25v2.296h1.209V13H4V6.505h1.715l.221-2.296z" fill="#fff"></path>
  </symbol>
  <symbol fill="none" xmlns="http://www.w3.org/2000/svg" viewBox="0 0 13 13" id="linkedin">
    <path fill-rule="evenodd" clip-rule="evenodd" d="M2.727 13V4.403H.082V13h2.645zm0-11.645C2.711.585 2.201 0 1.371 0 .542 0 0 .586 0 1.355c0 .753.526 1.356 1.34 1.356h.016c.845 0 1.371-.603 1.371-1.356zM7.043 13V8.102c0-.263.019-.525.095-.712.21-.524.688-1.066 1.49-1.066 1.05 0 1.709.599 1.709 1.778V13H13V7.97c0-2.694-1.432-3.947-3.342-3.947-1.566 0-2.253.879-2.635 1.478l.02-1.15h-2.66c.04.823 0 8.649 0 8.649h2.66z" fill="#fff"></path>
  </symbol>
  <symbol fill="none" xmlns="http://www.w3.org/2000/svg" viewBox="0 0 17 17" id="google">
    <g clip-path="url(#clip0)">
      <path d="M17 8.695a9.81 9.81 0 00-.15-1.727H8.67v3.273h4.685a3.93 3.93 0 01-1.733 2.583v2.124h2.794C16.057 13.468 17 11.28 17 8.695z" fill="#4285F4"></path>
      <path d="M8.67 17c2.34 0 4.312-.753 5.749-2.052l-2.795-2.124c-.777.519-1.78.812-2.95.812-2.263 0-4.181-1.496-4.87-3.507H.922v2.19C2.393 15.188 5.39 17 8.67 17z" fill="#34A853"></path>
      <path d="M3.801 10.129a4.996 4.996 0 010-3.255v-2.19H.921a8.357 8.357 0 000 7.634l2.88-2.19z" fill="#FBBC04"></path>
      <path d="M8.67 3.364a4.765 4.765 0 013.327 1.274l2.476-2.427A8.429 8.429 0 008.67 0C5.392 0 2.393 1.811.92 4.685l2.881 2.19c.686-2.015 2.607-3.511 4.87-3.511z" fill="#EA4335"></path>
    </g>
    <defs>
      <clipPath id="clip0">
        <path fill="#fff" d="M0 0h17v17H0z"></path>
      </clipPath>
    </defs>
  </symbol>
  <symbol fill="none" xmlns="http://www.w3.org/2000/svg" viewBox="0 0 7 12" id="back-icon-hover">
    <path d="M6.348.264a.836.836 0 00-1.22 0L.253 5.363a.93.93 0 000 1.274l4.877 5.099a.836.836 0 001.219 0 .93.93 0 000-1.275L2.08 6l4.267-4.461a.93.93 0 000-1.275z" fill="#175599"></path>
  </symbol>
  <symbol fill="none" xmlns="http://www.w3.org/2000/svg" viewBox="0 0 7 12" id="back-icon-grey">
    <path d="M.253.264a.836.836 0 011.219 0l4.876 5.099a.93.93 0 010 1.274l-4.876 5.099a.836.836 0 01-1.22 0 .93.93 0 010-1.275L4.52 6 .253 1.539a.93.93 0 010-1.275z" fill="#8C96A2"></path>
  </symbol>
  <symbol fill="none" xmlns="http://www.w3.org/2000/svg" viewBox="0 0 8 8" id="close-white">
    <path d="M.16.16a.543.543 0 000 .767L3.231 4 .159 7.073a.543.543 0 10.768.768L4 4.768l3.073 3.073a.543.543 0 10.768-.768L4.768 4 7.841.927A.543.543 0 107.073.16L4 3.232.927.159a.543.543 0 00-.768 0z" fill="#fff"></path>
  </symbol>
  <symbol fill="none" xmlns="http://www.w3.org/2000/svg" viewBox="0 0 8 8" id="close-black">
    <path d="M.16.16a.543.543 0 000 .767L3.231 4 .159 7.073a.543.543 0 10.768.768L4 4.768l3.073 3.073a.543.543 0 10.768-.768L4.768 4 7.841.927A.543.543 0 107.073.16L4 3.232.927.159a.543.543 0 00-.768 0z" fill="#182E45"></path>
  </symbol>
  <symbol fill="none" xmlns="http://www.w3.org/2000/svg" viewBox="0 0 60 60" id="chat">
    <path d="M50.57 22.186v-11.39C50.57 8.709 48.858 7 46.762 7h-23.81c-2.094 0-3.809 1.708-3.809 3.797v4.745H5.81c-2.095 0-3.81 1.709-3.81 3.797v17.085c0 2.088 1.715 3.796 3.81 3.796h3.81v6.17c0 .854 1.047 1.234 1.619.664l6.666-6.834h6.953v2.848c0 2.088 1.714 3.796 3.81 3.796h14.57l6.667 6.834c.572.57 1.62.19 1.62-.664v-6.17h2.856c2.096 0 3.81-1.708 3.81-3.796V25.983c0-2.088-1.714-3.797-3.81-3.797h-3.81z" fill="#fff"></path>
    <path d="M5.809 15.542h22.857c2.095 0 3.81 1.709 3.81 3.797v17.085c0 2.088-1.715 3.796-3.81 3.796H17.904l-6.666 6.834c-.572.57-1.62.19-1.62-.664v-6.17H5.81C3.715 40.22 2 38.512 2 36.424V19.339c0-2.088 1.715-3.797 3.81-3.797z" fill="#A3D4FF" stroke="#175599" stroke-width="2" stroke-miterlimit="10"></path>
    <path d="M19.143 18.39v8.542c0 2.088 1.714 3.797 3.81 3.797h6.666m20.952-8.543v-11.39c0-2.088-1.714-3.796-3.81-3.796H22.953c-2.095 0-3.81 1.708-3.81 3.797v4.745m13.333 15.187h4.761l6 6.644c.572.664 1.62.285 1.62-.664v-6.075h1.904c2.095 0 3.81-1.709 3.81-3.797V24.94" stroke="#175599" stroke-width="2" stroke-miterlimit="10"></path>
    <path d="M24.856 40.22v2.848c0 2.088 1.715 3.796 3.81 3.796h14.571l6.667 6.834c.571.57 1.62.19 1.62-.664v-6.17h2.856c2.095 0 3.81-1.708 3.81-3.796V25.983c0-2.088-1.715-3.797-3.81-3.797H32.475m-7.619 8.543v6.644m4.762-15.187h-.952c-2.095 0-3.81 1.709-3.81 3.797v1.898" stroke="#175599" stroke-width="2" stroke-miterlimit="10"></path>
  </symbol>
  <symbol fill="none" xmlns="http://www.w3.org/2000/svg" viewBox="0 0 60 31" id="card">
    <path d="M10.078 8.414H4.883" stroke="#175599" stroke-width="2" stroke-miterlimit="10"></path>
    <path d="M57.87 2.15H11.117v27.141H57.87V2.151z" fill="#fff"></path>
    <path d="M11.117 19.896V2.15H57.87v27.141H11.117v-6.263" stroke="#175599" stroke-width="2" stroke-miterlimit="10"></path>
    <path d="M49.559 24.073h-30.13c0-1.774-1.35-3.131-3.117-3.131v-10.44c1.766 0 3.117-1.356 3.117-3.13h30.13c0 1.774 1.35 3.13 3.117 3.13v10.44c-1.767 0-3.117 1.357-3.117 3.131z" fill="#A3D4FF" stroke="#175599" stroke-width="2" stroke-miterlimit="10"></path>
    <path d="M22.545 15.721h2.078m19.74 0h2.078" stroke="#175599" stroke-width="2" stroke-miterlimit="10"></path>
    <path d="M29.818 15.723c0-2.923 2.078-5.22 4.676-5.22 2.597 0 4.675 2.297 4.675 5.22 0 2.922-2.078 5.219-4.675 5.219-2.598 0-4.676-2.297-4.676-5.22z" fill="#fff" stroke="#175599" stroke-width="2" stroke-miterlimit="10"></path>
    <path d="M14.234 19.896H.728" stroke="#175599" stroke-width="2" stroke-miterlimit="10"></path>
  </symbol>
  <symbol fill="none" xmlns="http://www.w3.org/2000/svg" viewBox="0 0 60 51" id="fx">
    <g clip-path="url(#clip0)">
      <path d="M50.637 35.219c-.382.288-.86.673-1.338.866m3.631-3.175c-.287.384-.67.866-1.051 1.25m2.675-4.234c-.191.578-.383 1.059-.67 1.54M40.987 15.3c5.924-1.732 12.134 1.732 13.854 7.698.477 1.828.573 3.657.19 5.389" stroke="#175599" stroke-width="2" stroke-miterlimit="10"></path>
      <path d="M44.14 18.09l-3.344-3.271 3.249-3.272m14.426 6.447c.191.674.478 1.54.573 2.213m-2.388-5.965c.382.577.86 1.347 1.146 1.924m-4.299-5.389a9.36 9.36 0 011.72 1.636M32.58 11.74c3.056-2.983 7.26-4.715 11.846-4.427 2.675.193 5.16.962 7.261 2.31M5.541 18.764c.382-.288.956-.673 1.338-.962m-3.631 3.271a14.34 14.34 0 011.147-1.347m-2.771 4.331c.191-.578.382-1.059.669-1.54M15.19 38.683c-5.923 1.732-12.133-1.732-13.853-7.698-.477-1.828-.573-3.657-.19-5.389" stroke="#175599" stroke-width="2" stroke-miterlimit="10"></path>
      <path d="M12.133 35.892l3.249 3.272-3.249 3.272" stroke="#175599" stroke-width="2" stroke-miterlimit="10"></path>
      <path d="M9.65 18.764c0 7.175 5.774 12.99 12.898 12.99 7.123 0 12.898-5.815 12.898-12.99 0-7.174-5.775-12.99-12.898-12.99-7.124 0-12.898 5.816-12.898 12.99z" fill="#A3D4FF" stroke="#175599" stroke-width="2" stroke-miterlimit="10"></path>
      <path d="M21.114 36.566c0 6.909 5.561 12.51 12.42 12.51 6.86 0 12.421-5.601 12.421-12.51s-5.56-12.51-12.42-12.51-12.42 5.601-12.42 12.51z" fill="#E9EAEB" stroke="#175599" stroke-width="2" stroke-miterlimit="10"></path>
      <path fill-rule="evenodd" clip-rule="evenodd" d="M35.73 30.053c1.229.18 2.286.784 2.906 1.296l-1.272 1.543c-.405-.334-1.133-.744-1.924-.86-.648-.095-1.332.002-1.978.526v2.636h1.461v2h-1.462V40H37v2h-7v-2h1.462v-2.806H30v-2h1.462v-3.479l.282-.29c1.242-1.28 2.708-1.56 3.986-1.372zM24.472 13.066a2.86 2.86 0 00-2.662 1.822h2.662v2h-2.849v.866h2.85v2H21.81a2.861 2.861 0 002.662 1.822h2.887v2h-2.887a4.859 4.859 0 01-4.744-3.822h-1.992v-2h1.887v-.866h-1.887v-2h1.992a4.859 4.859 0 014.744-3.822h2.887v2h-2.887z" fill="#175599"></path>
    </g>
    <defs>
      <clipPath id="clip0">
        <path fill="#fff" transform="rotate(90 30 30)" d="M0 0h51v60H0z"></path>
      </clipPath>
    </defs>
  </symbol>
  <symbol fill="none" xmlns="http://www.w3.org/2000/svg" viewBox="0 0 60 52" id="iban">
    <g clip-path="url(#clip0)">
      <path d="M15.734.935c-5.151 0-9.366 2.06-9.366 4.683V29.03l18.73-10.302V5.618c0-2.623-4.213-4.683-9.364-4.683z" fill="#fff"></path>
      <path d="M25.099 5.618c0-2.623-4.215-4.683-9.365-4.683-5.151 0-9.366 2.06-9.366 4.683 0 2.622 4.215 4.682 9.366 4.682 5.15 0 9.365-2.06 9.365-4.682z" stroke="#175599" stroke-width="1.873" stroke-miterlimit="10"></path>
      <path d="M6.368 5.619V10.3c0 2.623 4.215 4.683 9.366 4.683 5.15 0 9.365-2.06 9.365-4.683V5.62" stroke="#175599" stroke-width="1.873" stroke-miterlimit="10"></path>
      <path d="M25.1 14.983V10.3m-18.732 0v4.683c0 2.06 2.716 3.84 6.556 4.495" stroke="#175599" stroke-width="1.873" stroke-miterlimit="10" stroke-linecap="round"></path>
      <path d="M6.368 14.982v4.683c0 1.311 1.03 2.529 2.81 3.372m-2.81-8.055v10.302" stroke="#175599" stroke-width="1.873" stroke-miterlimit="10" stroke-linecap="round"></path>
      <path d="M58.534 21.634L20.792 41.487.937 30.998l37.742-19.76 19.855 10.396z" fill="#E9EAEB" stroke="#175599" stroke-width="1.873" stroke-miterlimit="10" stroke-linejoin="round"></path>
      <path d="M58.534 26.221L20.792 46.076.937 35.68" stroke="#175599" stroke-width="1.873" stroke-miterlimit="10" stroke-linecap="round" stroke-linejoin="round"></path>
      <path d="M58.534 30.81L20.792 50.666.937 40.27" stroke="#175599" stroke-width="1.873" stroke-miterlimit="10" stroke-linecap="round" stroke-linejoin="round"></path>
      <path d="M47.95 20.978l-7.96-4.215c-1.31.656-2.903.562-3.933 0L11.519 29.687c1.312.656 1.124 1.499 0 2.06l7.961 4.215a4.46 4.46 0 013.934 0l24.537-12.83c-1.124-.656-1.311-1.499 0-2.154z" fill="#fff" stroke="#175599" stroke-width="1.873" stroke-miterlimit="10"></path>
      <path d="M39.147 20.602v1.873m-18.731 7.492v1.873" stroke="#175599" stroke-width="1.873" stroke-miterlimit="10"></path>
      <path d="M33.341 24.443c2.154 1.123 2.342 2.903.281 4.027-1.966 1.03-5.432.936-7.586-.188-2.154-1.123-2.341-2.903-.28-4.027 1.966-1.03 5.431-.936 7.585.188z" fill="#fff" stroke="#175599" stroke-width="1.873" stroke-miterlimit="10"></path>
      <path d="M34.465 34.089L13.86 22.476l9.365-4.683 21.54 11.238v11.333l-10.301 5.525v-11.8z" fill="#A3D4FF" stroke="#175599" stroke-width="1.873" stroke-miterlimit="10" stroke-linejoin="round"></path>
    </g>
    <defs>
      <clipPath id="clip0">
        <path fill="#fff" d="M0 0h59.47v51.603H0z"></path>
      </clipPath>
    </defs>
  </symbol>
  <symbol fill="none" xmlns="http://www.w3.org/2000/svg" viewBox="0 0 12 12" id="close">
    <path d="M.239.239a.815.815 0 000 1.152L4.848 6l-4.61 4.61a.815.815 0 001.153 1.151L6 7.152l4.61 4.61a.815.815 0 001.151-1.153L7.152 6l4.61-4.61A.815.815 0 0010.608.24L6 4.848 1.39.238a.815.815 0 00-1.151 0z" fill="#8C96A2"></path>
  </symbol>
  <symbol fill="none" xmlns="http://www.w3.org/2000/svg" viewBox="0 0 16 16" id="eye-icon">
    <path fill-rule="evenodd" clip-rule="evenodd" d="M16 8c0 2-3.582 6-8 6s-8-4-8-6 3.582-6 8-6 8 4 8 6zm-4 0a4 4 0 11-8 0 4 4 0 018 0zm-4 2a2 2 0 100-4 2 2 0 000 4z" fill="#175599"></path>
  </symbol>
  <symbol fill="none" xmlns="http://www.w3.org/2000/svg" viewBox="0 0 10 8" id="check-green">
    <path d="M.309 4.454a1.097 1.097 0 010-1.527 1.038 1.038 0 011.492 0l2.669 2.73a1.097 1.097 0 010 1.527 1.038 1.038 0 01-1.492 0L.309 4.454z" fill="#24B63B"></path>
    <path d="M4.47 7.184a1.038 1.038 0 01-1.492 0 1.097 1.097 0 010-1.526L8.199.316a1.038 1.038 0 011.492 0 1.097 1.097 0 010 1.526L4.47 7.184z" fill="#24B63B"></path>
  </symbol>
  <symbol fill="none" xmlns="http://www.w3.org/2000/svg" viewBox="0 0 14 14" id="warrning-yellow">
    <circle cx="7" cy="7" r="7" fill="#fff"></circle>
    <rect x="5.895" y="2.211" width="2.211" height="6.632" rx="1.105" fill="#ED6F14"></rect>
    <rect x="5.895" y="9.579" width="2.211" height="2.211" rx="1.105" fill="#ED6F14"></rect>
  </symbol>
  <symbol fill="none" xmlns="http://www.w3.org/2000/svg" viewBox="0 0 15 14" id="error-x">
    <circle cx="7.5" cy="7" r="7" fill="#fff"></circle>
    <path d="M9.846 4.655a.737.737 0 00-1.042 0L7.502 5.958 6.199 4.655a.737.737 0 10-1.042 1.042L6.46 7 5.157 8.303A.737.737 0 106.2 9.345l1.303-1.303 1.302 1.303a.737.737 0 101.042-1.042L8.544 7l1.302-1.303a.737.737 0 000-1.042z" fill="red"></path>
  </symbol>
  <symbol fill="none" xmlns="http://www.w3.org/2000/svg" viewBox="0 0 16 16" id="icon-easy">
    <path d="M14.341 0a.753.753 0 00-.566.257L1.092 14.752a.753.753 0 001.133.991L14.908 1.248A.753.753 0 0014.342 0zM8 2c.91 0 1.785.17 2.6.457l-1.487 1.7a4 4 0 00-4.774 5.456l-1.924 2.198C.925 10.55 0 9.016 0 8c0-2 3.582-6 8-6zm0 10c-.386 0-.76-.055-1.113-.157l-1.487 1.7A7.82 7.82 0 008 14c4.418 0 8-4 8-6 0-1.016-.925-2.55-2.415-3.811l-1.924 2.198A4 4 0 018 12z" fill="#8C96A2"></path>
  </symbol>
  <symbol fill="none" xmlns="http://www.w3.org/2000/svg" viewBox="0 0 24 12" id="flag-uk">
    <g clip-path="url(#clip0)">
      <path d="M0 0v12h24V0H0z" fill="#012169"></path>
      <path d="M0 0l24 12L0 0zm24 0L0 12 24 0z" fill="#000"></path>
      <path d="M24 0L0 12M0 0l24 12L0 0z" stroke="#fff" stroke-width="2.4"></path>
      <path d="M0 0l24 12L0 0zm24 0L0 12 24 0z" fill="#000"></path>
      <path d="M24 0L0 12M0 0l24 12L0 0z" stroke="#C8102E" stroke-width="1.6"></path>
      <path d="M12 0v12V0zM0 6h24H0z" fill="#000"></path>
      <path d="M0 6h24M12 0v12V0z" stroke="#fff" stroke-width="4"></path>
      <path d="M12 0v12V0zM0 6h24H0z" fill="#000"></path>
      <path d="M0 6h24M12 0v12V0z" stroke="#C8102E" stroke-width="2.4"></path>
    </g>
    <defs>
      <clipPath id="clip0">
        <path fill="#fff" d="M0 0h24v12H0z"></path>
      </clipPath>
    </defs>
  </symbol>
  <symbol fill="none" xmlns="http://www.w3.org/2000/svg" viewBox="0 0 14 16" id="icon-data">
    <path fill-rule="evenodd" clip-rule="evenodd" d="M12.444 1.6h-.777V0H10.11v1.6H3.89V0H2.333v1.6h-.777C.7 1.6 0 2.32 0 3.2v11.2c0 .88.7 1.6 1.556 1.6h10.888C13.3 16 14 15.28 14 14.4V3.2c0-.88-.7-1.6-1.556-1.6zm0 12.8H1.556V5.6h10.888v8.8z" fill="#8C96A2"></path>
    <path d="M5 7.5H3v2h2v-2zm0 3H3v2h2v-2zm3-3H6v2h2v-2zm0 3H6v2h2v-2zm3-3H9v2h2v-2zm0 3H9v2h2v-2z" fill="#8C96A2"></path>
  </symbol>
  <symbol fill="none" xmlns="http://www.w3.org/2000/svg" viewBox="0 0 12 16" id="location">
    <path d="M6 0C4.409 0 2.883.664 1.757 1.845A6.462 6.462 0 000 6.299c0 4.252 5.25 9.055 5.513 9.26L6 16l.487-.44C6.75 15.353 12 10.55 12 6.3c0-1.671-.632-3.274-1.757-4.455C9.117.664 7.59 0 6 0zm0 9.449a2.9 2.9 0 01-1.667-.531 3.122 3.122 0 01-1.105-1.413 3.296 3.296 0 01-.17-1.82 3.201 3.201 0 01.82-1.613c.42-.44.955-.74 1.537-.862a2.868 2.868 0 011.733.18 3.037 3.037 0 011.346 1.16A3.25 3.25 0 019 6.3c0 .835-.316 1.636-.879 2.226A2.93 2.93 0 016 9.45z" fill="#175599"></path>
  </symbol>
  <symbol fill="none" xmlns="http://www.w3.org/2000/svg" viewBox="0 0 11 12" id="skripka">
    <path d="M3.506 11.5c-.436 0-.864-.128-1.227-.37a2.184 2.184 0 01-.335-3.38l3.124-3.105a.738.738 0 011.257.518.73.73 0 01-.215.517L2.986 8.787a.732.732 0 00.802 1.196.737.737 0 00.24-.16L8.191 5.68a2.195 2.195 0 00.648-1.553 2.185 2.185 0 00-.648-1.553 2.268 2.268 0 00-3.124 0L1.945 5.68a.737.737 0 01-1.201-.798.732.732 0 01.16-.237l3.123-3.107c1.394-1.384 3.819-1.384 5.207 0a3.658 3.658 0 011.079 2.59 3.642 3.642 0 01-1.08 2.588l-4.165 4.142a2.205 2.205 0 01-1.562.642z" fill="#175599"></path>
  </symbol>
  <symbol fill="none" xmlns="http://www.w3.org/2000/svg" viewBox="0 0 14 14" id="under-review">
    <circle cx="7" cy="7" r="7" fill="#fff"></circle>
    <rect x="6.301" y="2.1" width="1.4" height="6.3" rx=".7" fill="#EDA314"></rect>
    <rect x="6.301" y="7" width="4.9" height="1.4" rx=".7" fill="#EDA314"></rect>
  </symbol>
  <symbol fill="none" xmlns="http://www.w3.org/2000/svg" viewBox="0 0 10 5" id="up-down">
    <path d="M10 0H0l5 5 5-5z" fill="#182E45"></path>
  </symbol>
  <symbol fill="none" xmlns="http://www.w3.org/2000/svg" viewBox="0 0 40 40" id="preloader">
    <path opacity=".3" fill-rule="evenodd" clip-rule="evenodd" d="M20 5a15 15 0 100 30 15 15 0 000-30zm-7.654-3.478A20 20 0 1127.654 38.48 20 20 0 0112.346 1.522z" fill="#175599"></path>
    <path fill-rule="evenodd" clip-rule="evenodd" d="M9.905 5.488a2.5 2.5 0 01-.126 3.534A15 15 0 1034.99 20.535a2.5 2.5 0 114.997.179A20 20 0 116.372 5.362a2.5 2.5 0 013.533.126z" fill="#175599"></path>
  </symbol>
  <symbol fill="none" xmlns="http://www.w3.org/2000/svg" viewBox="0 0 40 33" id="dovnload">
    <path d="M35.5 17.566c-1.38 0-2.5 1.151-2.5 2.572v6.11H7v-6.11c0-1.42-1.12-2.573-2.5-2.573h-2c-1.38 0-2.5 1.152-2.5 2.573v10.29C0 31.848 1.12 33 2.5 33h35c1.38 0 2.5-1.152 2.5-2.572v-10.29c0-1.42-1.12-2.573-2.5-2.573h-2z" fill="#175599"></path>
    <path d="M15.286 20.138c0 1.42 1.119 2.572 2.5 2.572h4.558c1.38 0 2.5-1.151 2.5-2.572v-8.612h6.385c.454 0 .673-.572.34-.89l-9.867-9.447a2.449 2.449 0 00-3.406 0l-9.865 9.446c-.333.319-.114.892.34.892h6.515v8.61z" fill="#175599"></path>
  </symbol>
  <symbol fill="none" xmlns="http://www.w3.org/2000/svg" viewBox="0 0 12 8" id="top-icon">
    <path d="M11.736 7.048a.836.836 0 000-1.22L6.637.952a.93.93 0 00-1.274 0L.264 5.83a.836.836 0 000 1.219.93.93 0 001.275 0L6 2.78l4.461 4.267a.93.93 0 001.275 0z" fill="#182E45"></path>
  </symbol>
  <symbol fill="none" xmlns="http://www.w3.org/2000/svg" viewBox="0 0 16 16" id="icon-share">
    <path d="M9.38 5.665A2.987 2.987 0 018 6c-.497 0-.967-.121-1.38-.335l-2.582 4.52A3.001 3.001 0 112.99 10l2.825-4.943a3 3 0 114.368 0L13.01 10a3 3 0 11-1.047.184L9.38 5.664z" fill="#175599"></path>
  </symbol>
  <symbol fill="none" xmlns="http://www.w3.org/2000/svg" viewBox="0 0 16 16" id="shape">
    <path fill-rule="evenodd" clip-rule="evenodd" d="M0 12.622V16h3.378l9.778-9.867-3.378-3.377L0 12.622zm15.733-9.066a.86.86 0 000-1.245L13.69.267a.86.86 0 00-1.245 0l-1.6 1.6 3.378 3.377 1.511-1.688z" fill="#8C96A2"></path>
  </symbol>
  <symbol fill="none" xmlns="http://www.w3.org/2000/svg" viewBox="0 0 14 16" id="icon-delete">
    <path d="M13.724 2.308s.07.208.175.583c.075.258.126.368.089.414-.035.042-.143.03-.373.027H.383c-.23 0-.337.013-.37-.029-.037-.045.013-.154.086-.412l.162-.542c.11-.376.403-.422.81-.486l.034-.005 2.328-.28c.289-.05.289-.05.403-.282.07-.152.131-.292.187-.419C4.269.316 4.407 0 4.746 0h4.506c.341 0 .482.319.731.883.055.125.115.261.184.408.114.238.114.238.402.284l2.324.279.125.018c.36.052.604.087.706.436zM1.6 4.665h10.798c.727 0 .762.088.718.613l-.818 10.105c-.07.513-.123.617-.766.617H2.466c-.643 0-.696-.104-.766-.617L.882 5.278c-.044-.52-.009-.613.718-.613z" fill="#8C96A2"></path>
  </symbol>
  <symbol fill="none" xmlns="http://www.w3.org/2000/svg" viewBox="0 0 14 14" id="icon-plus">
    <path d="M7 0a.875.875 0 00-.875.875v5.25H.875a.875.875 0 100 1.75h5.25v5.25a.875.875 0 001.75 0v-5.25h5.25a.875.875 0 000-1.75h-5.25V.875A.875.875 0 007 0z" fill="#fff"></path>
  </symbol>
  <symbol fill="none" xmlns="http://www.w3.org/2000/svg" viewBox="0 0 9 16" id="back-icon">
    <path d="M.336 15.648c.45.47 1.177.47 1.626 0L8.463 8.85a1.24 1.24 0 000-1.7L1.962.352a1.114 1.114 0 00-1.626 0 1.24 1.24 0 000 1.7L6.026 8l-5.69 5.948a1.24 1.24 0 000 1.7z" fill="currentColor"></path>
  </symbol>
  <symbol fill="none" xmlns="http://www.w3.org/2000/svg" viewBox="0 0 25 18" id="humburger">
    <path d="M.5 1.5A1.5 1.5 0 012 0h21a1.5 1.5 0 010 3H2A1.5 1.5 0 01.5 1.5zM.5 9A1.5 1.5 0 012 7.5h21a1.5 1.5 0 010 3H2A1.5 1.5 0 01.5 9zm0 7.5A1.5 1.5 0 012 15h21a1.5 1.5 0 010 3H2a1.5 1.5 0 01-1.5-1.5z" fill="#8C96A2"></path>
  </symbol>
  <symbol fill="none" xmlns="http://www.w3.org/2000/svg" viewBox="0 0 16 16" id="log-out">
    <path fill-rule="evenodd" clip-rule="evenodd" d="M6.311 11.2l1.245 1.244L12 8 7.556 3.556 6.31 4.8l2.311 2.311H0V8.89h8.622l-2.31 2.31zM14.222 0H1.778C.8 0 0 .8 0 1.778v3.555h1.778V1.778h12.444v12.444H1.778v-3.555H0v3.555C0 15.2.8 16 1.778 16h12.444C15.2 16 16 15.2 16 14.222V1.778C16 .8 15.2 0 14.222 0z" fill="currentColor"></path>
  </symbol>
  <symbol fill="none" xmlns="http://www.w3.org/2000/svg" viewBox="0 0 16 16" id="settings">
    <path d="M15.152 10.027l-1.394-1.05.009-.064.004-.027a5.98 5.98 0 00.034-.274l.002-.014a5.744 5.744 0 00.029-.584v-.103c0-.042-.002-.083-.004-.124l-.003-.076-.009-.151-.001-.016-.004-.044-.008-.08-.001-.018-.001-.01-.004-.04-.005-.05-.003-.026-.004-.028a5.366 5.366 0 00-.03-.205l-.001-.018 1.396-1.052a.708.708 0 00.253-.959l-1.154-2.027a.687.687 0 00-.946-.257l-1.596.7-.027-.02-.012-.01c-.02-.018-.042-.034-.063-.05a4.26 4.26 0 00-.069-.055l-.056-.042-.027-.02-.046-.035-.026-.02-.066-.045-.016-.012a3.504 3.504 0 00-.125-.085l-.011-.007a5.942 5.942 0 00-.16-.102l-.042-.025a5.72 5.72 0 00-.355-.196l-.007-.004a5.792 5.792 0 00-.482-.216l-.013-.006-.063-.025-.2-1.753A.697.697 0 009.153 0H6.845a.697.697 0 00-.692.702l-.2 1.753-.027.01-.033.014a5.698 5.698 0 00-.19.078l-.033.015a5.168 5.168 0 00-.169.078l-.017.008-.023.01-.06.032a5.248 5.248 0 00-.14.073l-.1.054-.063.037c-.002 0-.003.002-.005.003l-.012.006c-.006.004-.013.009-.02.012a5.686 5.686 0 00-.248.156l-.026.016-.007.005a6.056 6.056 0 00-.186.13l-.026.02a5.909 5.909 0 00-.237.183l-.044.036-1.594-.7a.687.687 0 00-.946.257L.593 5.015a.708.708 0 00.253.96l1.395 1.05-.008.05-.008.059a6.23 6.23 0 00-.03.241l-.005.048a5.867 5.867 0 00-.017.216l-.001.017-.001.018-.002.048a5.831 5.831 0 00-.006.246l-.001.034v.095l.003.1.006.13.006.11.002.016c0 .018.003.036.004.053l.007.07.016.156v.002c.01.077.02.154.033.23l.001.014-1.394 1.05a.707.707 0 00-.253.959l1.154 2.027a.687.687 0 00.946.257l1.593-.7.034.027.006.004.052.042.082.065.049.037.064.048a.102.102 0 01.007.005l.03.023.075.052.006.005.03.02a5.674 5.674 0 00.665.397l.012.006c.18.09.365.173.555.245l.2 1.75c0 .388.309.703.692.703h2.307a.698.698 0 00.693-.703l.2-1.75.028-.011.03-.012a6.05 6.05 0 00.19-.079l.038-.016c.056-.025.112-.05.168-.077l.015-.008.002-.001.018-.009a4.933 4.933 0 00.202-.104l.103-.056.051-.03.018-.01.009-.005.014-.01c.08-.046.157-.094.233-.144l.017-.01.036-.024a5.775 5.775 0 00.42-.31l.028-.022.047-.038 1.594.7a.687.687 0 00.945-.257l1.154-2.027a.708.708 0 00-.253-.96zM8 10.443c-1.33 0-2.408-1.094-2.408-2.443C5.592 6.65 6.67 5.557 8 5.557c1.33 0 2.409 1.094 2.409 2.443 0 1.35-1.079 2.443-2.409 2.443z" fill="currentColor"></path>
  </symbol>
  <symbol fill="none" xmlns="http://www.w3.org/2000/svg" viewBox="0 0 12 16" id="mobile-phone">
    <path fill-rule="evenodd" clip-rule="evenodd" d="M12 3a3 3 0 00-3-3H3a3 3 0 00-3 3v10a3 3 0 003 3h6a3 3 0 003-3V3zM2 3a1 1 0 011-1h6a1 1 0 011 1v9a1 1 0 01-1 1H3a1 1 0 01-1-1V3z" fill="currentColor"></path>
  </symbol>
  <symbol fill="none" xmlns="http://www.w3.org/2000/svg" viewBox="0 0 16 16" id="faq">
    <path fill-rule="evenodd" clip-rule="evenodd" d="M16 8A8 8 0 110 8a8 8 0 0116 0zm-2 0A6 6 0 112 8a6 6 0 0112 0z" fill="currentColor"></path>
    <path d="M8 4a1 1 0 100 2 1 1 0 000-2zm0 3a1 1 0 00-1 1v3a1 1 0 102 0V8a1 1 0 00-1-1z" fill="currentColor"></path>
  </symbol>
  <symbol fill="none" xmlns="http://www.w3.org/2000/svg" viewBox="0 0 16 16" id="community">
    <path fill-rule="evenodd" clip-rule="evenodd" d="M15.2 3.2h-1.6v7.2H3.2V12c0 .48.32.8.8.8h8.8L16 16V4c0-.48-.32-.8-.8-.8zM12 8V.8c0-.48-.32-.8-.8-.8H.8C.32 0 0 .32 0 .8V12l3.2-3.2h8c.48 0 .8-.32.8-.8z" fill="currentColor"></path>
  </symbol>
  <symbol fill="none" xmlns="http://www.w3.org/2000/svg" viewBox="0 0 16 16" id="reports">
    <path d="M12 4H4v2h8V4zm0 3H4v2h8V7zm-8 3h8v2H4v-2z" fill="currentColor"></path>
    <path fill-rule="evenodd" clip-rule="evenodd" d="M0 3a3 3 0 013-3h10a3 3 0 013 3v10a3 3 0 01-3 3H3a3 3 0 01-3-3V3zm3-1h10a1 1 0 011 1v10a1 1 0 01-1 1H3a1 1 0 01-1-1V3a1 1 0 011-1z" fill="currentColor"></path>
  </symbol>
  <symbol fill="none" xmlns="http://www.w3.org/2000/svg" viewBox="0 0 16 14" id="merchant-account">
    <path d="M13 4H6v2h7V4z" fill="#8C96A2"></path>
    <path fill-rule="evenodd" clip-rule="evenodd" d="M3 3v.23a3 3 0 00-3 3V11a3 3 0 003 3h6.923a3 3 0 003-3H13a3 3 0 003-3V3a3 3 0 00-3-3H6a3 3 0 00-3 3zm-1 8V6.23a1 1 0 011-1V8a3 3 0 003 3h4.923a1 1 0 01-1 1H3a1 1 0 01-1-1zm3-8v5a1 1 0 001 1h7a1 1 0 001-1V3a1 1 0 00-1-1H6a1 1 0 00-1 1z" fill="currentColor"></path>
  </symbol>
  <symbol fill="none" xmlns="http://www.w3.org/2000/svg" viewBox="0 0 16 14" id="exchange">
    <path d="M8 3a1 1 0 100 2h4.509l-1.206 1.216a1.051 1.051 0 000 1.478 1.03 1.03 0 001.465 0l2.929-2.955a1.051 1.051 0 000-1.478L12.767.306a1.029 1.029 0 00-1.464 0 1.051 1.051 0 000 1.478L12.51 3H8zm0 6a1 1 0 110 2H3.491l1.206 1.216c.404.408.404 1.07 0 1.478a1.03 1.03 0 01-1.465 0L.303 10.739a1.051 1.051 0 010-1.478l2.93-2.955a1.029 1.029 0 011.464 0c.404.408.404 1.07 0 1.478L3.49 9H8z" fill="currentColor"></path>
  </symbol>
  <symbol fill="none" xmlns="http://www.w3.org/2000/svg" viewBox="0 0 12 16" id="crypto">
    <path fill-rule="evenodd" clip-rule="evenodd" d="M2.431 0H4.04v2h1.9V0h1.61v2.084c.8.121 1.45.373 1.95.756.742.56 1.113 1.32 1.113 2.28a3.02 3.02 0 01-.403 1.56 2.783 2.783 0 01-1.097 1.08c.645.217 1.15.583 1.516 1.097.365.503.548 1.126.548 1.869 0 1.051-.387 1.863-1.16 2.434-.574.42-1.348.683-2.321.788V16H6.087v-2H4.04v2H2.43v-2H.823V2h1.608V0zm.989 4.091V6.92h2.596c.645 0 1.134-.12 1.467-.36.334-.24.5-.594.5-1.063 0-.468-.166-.817-.5-1.046-.333-.24-.822-.36-1.467-.36H3.42zm3.047 7.818c.688 0 1.204-.12 1.548-.36.355-.24.533-.612.533-1.115 0-.994-.694-1.491-2.08-1.491H3.42v2.966h3.047z" fill="currentColor"></path>
  </symbol>
  <symbol fill="none" xmlns="http://www.w3.org/2000/svg" viewBox="0 0 12 15" id="person">
    <path d="M6 0a3 3 0 00-3 3v1a3 3 0 006 0V3a3 3 0 00-3-3zM2 8a2 2 0 00-2 2v5h12v-5a2 2 0 00-2-2H2z" fill="currentColor"></path>
  </symbol>
  <symbol fill="none" xmlns="http://www.w3.org/2000/svg" viewBox="0 0 16 12" id="arrow-right">
    <path d="M9.282 2.258c-.5-.516-.5-1.354 0-1.87a1.253 1.253 0 011.812 0l4.53 4.677a1.356 1.356 0 010 1.871l-4.53 4.677c-.5.516-1.312.516-1.812 0-.5-.517-.5-1.355 0-1.871l2.278-2.353H1.282C.574 7.39 0 6.797 0 6.066c0-.73.574-1.322 1.282-1.322h10.407L9.282 2.258z" fill="currentColor"></path>
  </symbol>
  <symbol fill="none" xmlns="http://www.w3.org/2000/svg" viewBox="0 0 16 16" id="icon-home">
    <path d="M3.286 6.857a1 1 0 00-1 1v3.333a1 1 0 001 1h.285a1 1 0 001-1V7.857a1 1 0 00-1-1h-.285zm4.571 0a1 1 0 00-1 1v3.333a1 1 0 001 1h.286a1 1 0 001-1V7.857a1 1 0 00-1-1h-.286zM.762 15a1 1 0 001 1h12.476a1 1 0 001-1v-.286a1 1 0 00-1-1H1.762a1 1 0 00-1 1V15zm11.666-8.143a1 1 0 00-1 1v3.333a1 1 0 001 1h.286a1 1 0 001-1V7.857a1 1 0 00-1-1h-.286zM8.14.074a.3.3 0 00-.28 0L.922 3.725a.3.3 0 00-.16.266v1.042a.3.3 0 00.3.3h13.876a.3.3 0 00.3-.3V3.991a.3.3 0 00-.16-.266L8.14.074z" fill="currentColor"></path>
  </symbol>
  <symbol fill="none" xmlns="http://www.w3.org/2000/svg" viewBox="0 0 16 16" id="dashboard">
    <path d="M2 0a2 2 0 00-2 2v3a2 2 0 002 2h3a2 2 0 002-2V2a2 2 0 00-2-2H2zm9 0a2 2 0 00-2 2v3a2 2 0 002 2h3a2 2 0 002-2V2a2 2 0 00-2-2h-3zM0 11a2 2 0 012-2h3a2 2 0 012 2v3a2 2 0 01-2 2H2a2 2 0 01-2-2v-3zm11-2a2 2 0 00-2 2v3a2 2 0 002 2h3a2 2 0 002-2v-3a2 2 0 00-2-2h-3z" fill="currentColor"></path>
  </symbol>
  <symbol fill="none" xmlns="http://www.w3.org/2000/svg" viewBox="0 0 60 60" id="snp-logo">
    <path d="M10.917 49.524V10.48h9.28l6.224-5.24L20.198 0H3.536a3.616 3.616 0 00-2.5.996A3.33 3.33 0 000 3.398v53.204c0 .446.09.888.268 1.3.178.412.438.787.766 1.103.329.315.719.566 1.148.736.429.171.89.259 1.354.259h24.032V49.524H10.917zm38.151-39.048V49.52h-9.281l-6.208 5.24L39.802 60h16.662c.465 0 .925-.088 1.354-.259.43-.17.82-.42 1.148-.736.328-.316.589-.69.766-1.103.178-.412.269-.854.268-1.3V3.398c0-.9-.372-1.764-1.035-2.402a3.616 3.616 0 00-2.5-.996H32.432v10.48l16.635-.004z" fill="#D12E56"></path>
  </symbol>
  <symbol fill="none" xmlns="http://www.w3.org/2000/svg" viewBox="0 0 14 16" id="moon">
    <path d="M-.001 13.235c2.95-.086 5.78-1.854 7.13-4.775 1.35-2.92.85-6.193-1.013-8.457A7.632 7.632 0 019.495.68c3.934 1.779 5.608 6.499 3.74 10.542-1.87 4.043-6.574 5.878-10.509 4.098A7.55 7.55 0 010 13.235z" fill="currentColor"></path>
  </symbol>
  <symbol fill="none" xmlns="http://www.w3.org/2000/svg" viewBox="0 0 20 20" id="success">
    <circle cx="10" cy="10" r="10" fill="#24B63B"></circle>
    <path d="M5.571 10.66a1.053 1.053 0 111.49-1.489l2.662 2.663a1.053 1.053 0 11-1.488 1.489L5.57 10.66z" fill="#fff"></path>
    <path d="M9.723 13.323a1.053 1.053 0 11-1.488-1.489l5.21-5.21a1.053 1.053 0 111.489 1.489l-5.21 5.21z" fill="#fff"></path>
  </symbol>
  <symbol fill="none" xmlns="http://www.w3.org/2000/svg" viewBox="0 0 20 20" id="warning-red">
    <circle cx="10" cy="10" r="10" fill="#E10909"></circle>
    <path fill-rule="evenodd" clip-rule="evenodd" d="M10 3a1.5 1.5 0 00-1.5 1.5v6.692a1.5 1.5 0 003 0V4.5A1.5 1.5 0 0010 3zm0 10.77a1.5 1.5 0 00-1.5 1.5v.23a1.5 1.5 0 003 0v-.23a1.5 1.5 0 00-1.5-1.5z" fill="#fff"></path>
  </symbol>
  <symbol fill="none" xmlns="http://www.w3.org/2000/svg" viewBox="0 0 180 28" id="site-logo">
    <path d="M4.502 22.578V5.414h3.827l2.566-2.304L8.329.807H1.458a1.44 1.44 0 00-1.031.438C.154 1.525 0 1.905 0 2.3v23.39a1.522 1.522 0 00.426 1.056 1.457 1.457 0 001.032.438h9.91v-4.606H4.501zm16.77-17.165v17.165h-3.827l-2.56 2.304 2.566 2.303h6.871a1.429 1.429 0 001.032-.437 1.496 1.496 0 00.426-1.056V2.302c0-.396-.154-.776-.427-1.056a1.443 1.443 0 00-1.03-.438h-9.91v4.607l6.86-.002z" fill="#D12E56"></path>
    <path d="M45.082 16.28l-3.644-1c-1.344-.402-2.273-.953-2.785-1.651-.513-.698-.77-1.663-.771-2.896 0-1.557.469-2.658 1.407-3.305.939-.646 2.543-.969 4.814-.968 2.627.042 4.879.235 6.755.578l-.296 2.88c-2.49-.039-4.365-.06-5.628-.06-.692 0-1.171 0-1.438.014a4.521 4.521 0 00-.799.105c-.268.061-.43.161-.489.29-.07.189-.1.39-.09.59 0 .092.005.183.015.273.01.08.036.159.075.23.038.069.075.123.103.16a.6.6 0 00.157.136c.061.042.125.078.193.107a6.6 6.6 0 00.266.104c.13.049.227.087.297.108l.384.107c.188.05.331.084.43.105l3.733 1.03c1.304.384 2.232.895 2.785 1.531.553.637.829 1.582.829 2.836 0 1.78-.503 2.988-1.51 3.623-1.007.636-2.735.953-5.186.953a38.832 38.832 0 01-6.545-.512l.266-2.914c.71.044 2.399.065 5.066.062 1.52 0 2.513-.066 2.977-.197a.853.853 0 00.52-.326.89.89 0 00.175-.597 2.37 2.37 0 00-.014-.274.62.62 0 00-.074-.228.88.88 0 00-.118-.16.953.953 0 00-.193-.136c-.09-.05-.157-.09-.208-.123a2.012 2.012 0 00-.28-.12 3.651 3.651 0 00-.327-.106l-.414-.106a3.269 3.269 0 01-.438-.142zm8.138-6.063l-.415-3.032a42.017 42.017 0 017.615-.728c1.973 0 3.425.41 4.355 1.23.93.819 1.394 2.238 1.391 4.258v9.886H62.7l-.445-2.274c-1.46 1.758-3.258 2.637-5.392 2.637-1.403 0-2.548-.376-3.436-1.129-.888-.753-1.332-1.809-1.333-3.168v-1.516c0-1.194.394-2.121 1.185-2.79.791-.67 1.892-1 3.288-1h5.214v-.667c-.019-.768-.192-1.283-.519-1.545-.324-.263-.945-.397-1.88-.397-1.62-.006-3.673.073-6.161.235zm3.2 6.49v.574c0 1.032.572 1.548 1.717 1.547 1.186 0 2.4-.484 3.645-1.452V15.28h-3.94c-.949.023-1.423.499-1.423 1.428zM77.43 3.281h-2.757c-.73 0-1.239.141-1.526.424-.286.283-.43.789-.428 1.517v1.667h3.398v3h-3.398v11.942h-4.413V9.883H66.86V7.035l1.445-.152V4.609c0-3.074 1.6-4.61 4.798-4.609 2.075 0 3.655.101 4.742.303l-.415 2.978zm8.856 12.582h-5.28c.139 1.09.46 1.823.963 2.197.504.374 1.338.561 2.503.561a51.883 51.883 0 005.452-.338l.415 2.789c-1.522.753-3.645 1.129-6.37 1.129-2.745 0-4.7-.606-5.866-1.818-1.165-1.212-1.748-3.216-1.747-6.012 0-2.93.568-4.982 1.704-6.154 1.136-1.172 3.047-1.759 5.733-1.76 2.43 0 4.188.43 5.274 1.29 1.085.861 1.637 2.168 1.656 3.922 0 1.397-.35 2.44-1.051 3.14-.701.698-1.831 1.054-3.386 1.054zm-5.359-2.699h4.147c.535 0 .894-.13 1.082-.395.187-.264.282-.645.282-1.15 0-.71-.178-1.2-.535-1.473-.356-.272-1.01-.41-1.964-.413-1.127 0-1.897.227-2.31.681-.413.454-.65 1.369-.711 2.745l.01.005zM95.28 6.883l.325 2.213c2.113-1.76 4.197-2.64 6.253-2.639 1.323 0 2.335.354 3.035 1.062.701.707 1.052 1.738 1.053 3.092v11.22h-4.356v-9.825c0-.668-.104-1.129-.316-1.377-.211-.249-.576-.381-1.103-.381-.929 0-2.282.455-4.059 1.366v10.217h-4.388V6.883h3.556zm21.651 8.98h-5.268c.139 1.09.46 1.823.963 2.197.504.374 1.337.561 2.503.561a51.91 51.91 0 005.446-.338l.414 2.789c-1.521.753-3.644 1.129-6.369 1.129-2.746 0-4.701-.606-5.867-1.818-1.165-1.212-1.748-3.214-1.748-6.006 0-2.93.568-4.981 1.704-6.154 1.136-1.172 3.047-1.758 5.733-1.76 2.428 0 4.186.43 5.272 1.291 1.087.86 1.64 2.165 1.66 3.915 0 1.397-.352 2.44-1.051 3.14-.7.698-1.832 1.054-3.392 1.054zm-5.359-2.699h4.147c.532 0 .893-.13 1.081-.395.187-.264.28-.645.28-1.15 0-.71-.177-1.2-.532-1.473-.356-.272-1.008-.41-1.958-.413-1.128 0-1.898.227-2.311.681-.416.449-.651 1.371-.711 2.745l.004.005zm16.326-3.281v7.066c0 .566.119.967.354 1.182.235.215.654.332 1.245.332h1.868l.473 3.125c-1.125.403-2.498.605-4.118.606-1.322 0-2.35-.376-3.082-1.129-.732-.753-1.1-1.809-1.103-3.168V9.883h-1.474V7.035l1.474-.152V2.699h4.363v4.184h4.058v3h-4.058zm9.31-3l.316 2.182c.472-.896 1.084-1.901 2.217-2.227 1.261-.365 2.484-.349 3.591-.349 3.362 0 5.044 2.668 5.044 8.003 0 2.871-.45 4.877-1.348 6.018-.898 1.141-2.306 1.712-4.223 1.713-1.975 0-3.604-.483-4.886-1.451a25 25 0 01.088 3.215v3.608h-4.356V6.883h3.557zm.799 4.549v6.85c1.54.405 2.643.607 3.31.607.968 0 1.635-.283 2.001-.848.365-.566.548-1.749.548-3.55 0-1.757-.168-2.945-.504-3.56-.334-.615-.929-.925-1.778-.925-.96 0-2.022-.399-3.577 1.426zm12.588-1.215l-.416-3.032a42.025 42.025 0 017.616-.728c1.973 0 3.424.41 4.353 1.23.929.819 1.394 2.238 1.394 4.258v9.886h-3.468l-.445-2.274c-1.46 1.758-3.258 2.637-5.392 2.637-1.403 0-2.548-.376-3.436-1.129-.888-.753-1.332-1.809-1.333-3.168v-1.516c0-1.194.395-2.121 1.185-2.79.79-.67 1.891-1 3.29-1h5.214v-.667c-.02-.768-.193-1.283-.519-1.545-.326-.263-.946-.397-1.88-.397-1.618-.006-3.672.073-6.163.235zm3.199 6.49v.574c0 1.032.573 1.548 1.718 1.547 1.186 0 2.4-.484 3.645-1.452V15.28h-3.941c-.946.023-1.418.499-1.417 1.428h-.005zM180 6.883l-5.186 15.163a12.154 12.154 0 01-1.021 2.244 10.125 10.125 0 01-1.556 1.986 5.736 5.736 0 01-2.364 1.41 7.192 7.192 0 01-3.124.241l-.355-2.637c1.184-.323 2.112-.742 2.786-1.258a5.11 5.11 0 001.576-2.078l.06-.12h-.834c-.732 0-1.204-.364-1.419-1.091l-4.769-13.857h4.681l2.725 9.67c.178.71.326 1.453.445 2.244h.386c.058-.242.156-.618.296-1.129.137-.516.237-.884.295-1.108l2.697-9.67 4.681-.01z" fill="#175598"></path>
  </symbol>
  <symbol fill="none" xmlns="http://www.w3.org/2000/svg" viewBox="0 0 16 16" id="phone">
    <path d="M14.952 11.377c-.082-.059-.163-.125-.237-.184a20.9 20.9 0 00-1.258-.913c-.089-.059-.17-.118-.259-.176-.533-.376-1.013-.553-1.472-.553-.614 0-1.147.339-1.584 1.002-.192.294-.429.434-.725.434-.17 0-.37-.052-.584-.147-1.724-.78-2.96-1.973-3.663-3.549-.34-.765-.229-1.258.37-1.663.34-.228.977-.655.933-1.48C6.42 3.221 4.357.416 3.483.1A1.725 1.725 0 002.33.1C1.33.431.613 1.02.25 1.8c-.348.752-.333 1.635.045 2.548 1.087 2.65 2.611 4.961 4.535 6.868 1.887 1.87 4.195 3.394 6.881 4.542.244.103.496.162.68.199.067.015.12.03.156.037a.204.204 0 00.067.007h.022c1.258 0 2.775-1.148 3.24-2.451.422-1.149-.325-1.716-.924-2.172z" fill="#8C96A2"></path>
  </symbol>
  <symbol fill="none" xmlns="http://www.w3.org/2000/svg" viewBox="0 0 16 10" id="message">
    <path fill-rule="evenodd" clip-rule="evenodd" d="M0 1a1 1 0 011-1h14a1 1 0 011 1v8a1 1 0 01-1 1H1a1 1 0 01-1-1V1zm3.891 1L8 5.228 12.109 2H3.89zM14 3.057L8 7.772 2 3.057V8h12V3.057z" fill="currentColor"></path>
  </symbol>
  <symbol fill="none" xmlns="http://www.w3.org/2000/svg" viewBox="0 0 7 8" id="check">
    <path d="M2.967 5.144c0-.364.081-.665.243-.903.169-.237.411-.5.728-.787.232-.21.401-.384.507-.524a.79.79 0 00.168-.494.702.702 0 00-.316-.608c-.204-.154-.479-.231-.823-.231-.33 0-.626.07-.887.21a1.84 1.84 0 00-.643.566L.667 1.628A2.959 2.959 0 011.859.59C2.366.345 2.964.222 3.653.222c.81 0 1.456.172 1.942.514.492.343.738.819.738 1.428 0 .286-.049.538-.147.755a1.922 1.922 0 01-.349.556 7.52 7.52 0 01-.527.515 4.2 4.2 0 00-.57.587.896.896 0 00-.18.567H2.968zm.802 2.634c-.288 0-.531-.091-.728-.273a.927.927 0 01-.285-.682.86.86 0 01.285-.661 1.01 1.01 0 01.728-.273c.296 0 .538.09.728.273a.86.86 0 01.285.66.911.911 0 01-.295.683.996.996 0 01-.718.273z" fill="#fff"></path>
  </symbol>
  <symbol fill="none" xmlns="http://www.w3.org/2000/svg" viewBox="0 0 11 8" id="question">
    <path d="M.571 4.66a1.053 1.053 0 111.49-1.489l2.662 2.663a1.053 1.053 0 11-1.488 1.489L.57 4.66z" fill="#fff"></path>
    <path d="M4.723 7.323a1.053 1.053 0 01-1.488-1.489l5.21-5.21a1.053 1.053 0 011.489 1.489l-5.21 5.21z" fill="#fff"></path>
  </symbol>
  <symbol fill="none" xmlns="http://www.w3.org/2000/svg" viewBox="0 0 22 12" id="flag-eu">
    <mask id="a" maskUnits="userSpaceOnUse" x="0" y="0" width="22" height="12">
      <path d="M0 1.818C0 .814.724 0 1.616 0h18.768C21.276 0 22 .814 22 1.818v8.364C22 11.186 21.276 12 20.384 12H1.616C.724 12 0 11.186 0 10.182V1.818z" fill="#C4C4C4"></path>
    </mask>
    <g mask="url(#a)">
      <path d="M22 0H0v12h22V0z" fill="#039"></path>
      <path d="M10.877 1.382l.133.46h.442l-.357.286.133.46-.357-.286-.357.286.133-.46-.357-.286h.442l.145-.46zm3.146 6l.133.46h.441l-.356.287.133.46-.357-.287-.357.287.133-.46-.357-.287h.441l.146-.46zm-3.146 2l.133.46h.442l-.357.287.133.46-.357-.287-.357.287.133-.46-.357-.287h.442l.145-.46zm3.63-4l.133.46h.441l-.357.287.133.46-.356-.287-.357.287.133-.46-.357-.287h.441l.146-.46zm-7.26 0l.133.46h.442l-.357.287.133.46-.35-.287-.358.287.134-.46-.357-.287h.441l.14-.46zm5.445-3.467l.133.46h.442l-.357.287.133.46-.357-.287-.357.287.133-.46-.357-.287h.442l.145-.46zm-3.63 0l.133.46h.442l-.357.287.133.46-.357-.287-.357.287.133-.46-.357-.287h.442l.145-.46zm0 6.933l.133.46h.442l-.357.287.133.46-.357-.287-.357.287.133-.46-.357-.287h.442l.145-.46zm3.63 0l.133.46h.442l-.357.287.133.46-.357-.287-.357.287.133-.46-.357-.287h.442l.145-.46zm1.331-5.466l.133.46h.441l-.356.286.133.46-.357-.286-.357.286.133-.46-.357-.286h.441l.146-.46zm-6.292 0l.133.46h.442l-.357.286.133.46-.35-.286-.358.286.134-.46-.357-.286h.441l.14-.46zm0 4l.133.46h.442l-.357.287.133.46-.357-.287-.357.287.133-.46-.356-.287h.441l.145-.46z" fill="#FFEF52"></path>
    </g>
  </symbol>
  <symbol fill="none" xmlns="http://www.w3.org/2000/svg" viewBox="0 0 40 40" id="docx-icon">
    <path d="M28.069 0h-15.44a3.509 3.509 0 00-3.508 3.509V36.49A3.509 3.509 0 0012.63 40h23.86a3.509 3.509 0 003.508-3.509V11.93h-7.017L28.068 0z" fill="#D7DADD"></path>
    <path d="M28.07 0v8.421a3.509 3.509 0 003.51 3.509H40L28.07 0z" fill="#A8ADBA"></path>
    <path d="M39.998 18.246l-9.123-6.316h9.123v6.316z" fill="#D4D6DD"></path>
    <path opacity=".3" d="M9.121 34.386h20.351a2.105 2.105 0 002.105-2.105V19.649a2.105 2.105 0 00-2.105-2.105H9.122v16.842z" fill="#175BC1"></path>
    <path d="M0 18.246c0-1.163.943-2.106 2.105-2.106H28.07c1.163 0 2.105.943 2.105 2.106v12.631a2.105 2.105 0 01-2.105 2.106H2.105A2.105 2.105 0 010 30.877V18.246z" fill="#175BC1"></path>
    <path d="M3.75 21.965h2.455c.586 0 1.104.113 1.551.34a2.46 2.46 0 011.05.941c.252.407.378.88.378 1.42 0 .541-.126 1.014-.378 1.421a2.509 2.509 0 01-1.05.95c-.447.22-.965.332-1.551.332H3.75v-5.404zm2.393 4.377c.54 0 .97-.15 1.29-.448.323-.304.485-.713.485-1.227 0-.515-.162-.922-.486-1.22-.319-.304-.749-.455-1.289-.455H5.001v3.35h1.142zm6.601 1.119c-.56 0-1.067-.12-1.52-.363a2.737 2.737 0 01-1.058-.995 2.77 2.77 0 01-.378-1.436c0-.53.126-1.006.378-1.428.257-.428.61-.762 1.058-1.004.453-.242.96-.363 1.52-.363.561 0 1.066.121 1.513.363a2.719 2.719 0 011.444 2.432c0 .53-.129 1.008-.386 1.435-.258.422-.61.754-1.058.996a3.131 3.131 0 01-1.513.363zm0-1.065c.32 0 .608-.072.865-.216a1.58 1.58 0 00.602-.618c.15-.262.224-.56.224-.895a1.78 1.78 0 00-.224-.896 1.526 1.526 0 00-.602-.61 1.692 1.692 0 00-.865-.223 1.69 1.69 0 00-.864.223c-.258.144-.46.348-.61.61a1.83 1.83 0 00-.216.896c0 .334.072.633.216.895.15.263.352.468.61.618.257.144.545.216.864.216zm6.483 1.065c-.551 0-1.05-.118-1.498-.355a2.752 2.752 0 01-1.05-.996 2.786 2.786 0 01-.378-1.443c0-.536.126-1.014.378-1.436.258-.427.608-.76 1.05-.996.448-.242.95-.363 1.505-.363.469 0 .89.083 1.266.247.381.165.7.402.957.71l-.802.742c-.366-.422-.819-.633-1.359-.633a1.78 1.78 0 00-.895.223 1.564 1.564 0 00-.618.61 1.83 1.83 0 00-.216.896c0 .334.072.633.216.895.15.263.355.468.618.618.262.144.56.216.895.216.54 0 .993-.214 1.359-.64l.802.74a2.503 2.503 0 01-.957.718c-.38.165-.805.247-1.273.247zm6.373-.092l-1.304-1.876-1.281 1.876h-1.436l2-2.749-1.9-2.655h1.42l1.243 1.752 1.22-1.752h1.35l-1.883 2.61 2.015 2.794h-1.443z" fill="#fff"></path>
  </symbol>
  <symbol fill="none" xmlns="http://www.w3.org/2000/svg" viewBox="0 0 40 40" id="xls-icon">
    <path d="M28.069 0h-15.44a3.509 3.509 0 00-3.508 3.509V36.49A3.509 3.509 0 0012.63 40h23.86a3.509 3.509 0 003.508-3.509V11.93h-7.017L28.068 0z" fill="#D7DADD"></path>
    <path d="M28.07 0v8.421a3.509 3.509 0 003.51 3.509H40L28.07 0z" fill="#A8ADBA"></path>
    <path d="M39.998 18.246l-9.123-6.316h9.123v6.316z" fill="#D4D6DD"></path>
    <path opacity=".3" d="M9.121 34.386h20.351a2.105 2.105 0 002.105-2.105V19.649a2.105 2.105 0 00-2.105-2.105H9.122v16.842z" fill="#19923B"></path>
    <path d="M0 18.246c0-1.163.943-2.106 2.105-2.106H28.07c1.163 0 2.105.943 2.105 2.106v12.631a2.105 2.105 0 01-2.105 2.106H2.105A2.105 2.105 0 010 30.877V18.246z" fill="#19923B"></path>
    <path d="M11.338 27.369l-1.304-1.876-1.282 1.876H7.316l2-2.749-1.9-2.655h1.421l1.243 1.752 1.22-1.752h1.35l-1.883 2.61 2.015 2.794h-1.444zm1.933-5.404h1.25v4.384h2.71v1.02h-3.96v-5.404zm6.404 5.496c-.427 0-.841-.056-1.243-.17-.396-.118-.715-.27-.957-.455l.425-.942a2.9 2.9 0 00.826.41c.319.102.638.154.957.154.355 0 .617-.052.787-.155.17-.108.255-.25.255-.424a.388.388 0 00-.154-.317 1.06 1.06 0 00-.386-.208 7.27 7.27 0 00-.633-.17 8.82 8.82 0 01-1.012-.293 1.672 1.672 0 01-.679-.471c-.185-.217-.278-.505-.278-.865 0-.314.085-.597.255-.849.17-.257.424-.46.764-.61.345-.15.764-.224 1.258-.224.345 0 .682.041 1.012.124.329.082.617.2.864.355l-.386.95c-.499-.284-.998-.425-1.497-.425-.35 0-.61.056-.78.17a.52.52 0 00-.247.447c0 .186.095.325.286.417.195.088.491.175.887.263.412.097.75.195 1.012.293.262.098.486.252.671.463.19.211.286.497.286.857 0 .309-.088.592-.263.85-.17.251-.427.452-.772.601-.344.15-.764.224-1.258.224z" fill="#fff"></path>
  </symbol>
  <symbol fill="none" xmlns="http://www.w3.org/2000/svg" viewBox="0 0 40 40" id="tiff-icon">
    <path d="M28.069 0h-15.44a3.509 3.509 0 00-3.508 3.509V36.49A3.509 3.509 0 0012.63 40h23.86a3.509 3.509 0 003.508-3.509V11.93h-7.017L28.068 0z" fill="#D7DADD"></path>
    <path d="M28.07 0v8.421a3.509 3.509 0 003.51 3.509H40L28.07 0z" fill="#A8ADBA"></path>
    <path d="M39.998 18.246l-9.123-6.316h9.123v6.316z" fill="#D4D6DD"></path>
    <path opacity=".3" d="M9.121 34.386h20.351a2.105 2.105 0 002.105-2.105V19.649a2.105 2.105 0 00-2.105-2.105H9.122v16.842z" fill="#8FAC3C"></path>
    <path d="M0 18.246c0-1.163.943-2.106 2.105-2.106H28.07c1.163 0 2.105.943 2.105 2.106v12.631a2.105 2.105 0 01-2.105 2.106H2.105A2.105 2.105 0 010 30.877V18.246z" fill="#8FAC3C"></path>
    <path d="M8.264 22.984H6.535v-1.02h4.709v1.02h-1.73v4.384h-1.25v-4.384zm3.653-1.019h1.25v5.403h-1.25v-5.403zm3.783 1.003v1.428h2.501V25.4h-2.5v1.968H14.45v-5.403h4.083v1.003H15.7zm4.93 0v1.428h2.501V25.4h-2.5v1.968H19.38v-5.403h4.083v1.003H20.63z" fill="#fff"></path>
  </symbol>
  <symbol fill="none" xmlns="http://www.w3.org/2000/svg" viewBox="0 0 40 40" id="pdf-icon">
    <path d="M28.069 0h-15.44a3.509 3.509 0 00-3.508 3.509V36.49A3.509 3.509 0 0012.63 40h23.86a3.509 3.509 0 003.508-3.509V11.93h-7.017L28.068 0z" fill="#D7DADD"></path>
    <path d="M28.07 0v8.421a3.509 3.509 0 003.51 3.509H40L28.07 0z" fill="#A8ADBA"></path>
    <path d="M39.998 18.246l-9.123-6.316h9.123v6.316z" fill="#D4D6DD"></path>
    <path opacity=".3" d="M9.121 34.386h20.351a2.105 2.105 0 002.105-2.105V19.649a2.105 2.105 0 00-2.105-2.105H9.122v16.842z" fill="#EA444E"></path>
    <path d="M0 18.246c0-1.163.943-2.106 2.105-2.106H28.07c1.163 0 2.105.943 2.105 2.106v12.631a2.105 2.105 0 01-2.105 2.106H2.105A2.105 2.105 0 010 30.877V18.246z" fill="#EA444E"></path>
    <path d="M9.624 21.965c.479 0 .893.08 1.243.24.355.159.628.385.818.679.19.293.286.64.286 1.042 0 .396-.095.743-.286 1.042a1.85 1.85 0 01-.818.679c-.35.154-.764.232-1.243.232H8.536v1.49h-1.25v-5.404h2.338zm-.07 2.895c.376 0 .662-.08.857-.24.196-.164.294-.396.294-.694 0-.304-.098-.536-.293-.695-.196-.165-.482-.247-.857-.247h-1.02v1.876h1.02zm3.31-2.895h2.454c.587 0 1.104.113 1.552.34.453.22.803.535 1.05.941.252.407.378.88.378 1.42 0 .541-.126 1.014-.378 1.421a2.508 2.508 0 01-1.05.95c-.448.22-.965.331-1.552.331h-2.454v-5.403zm2.393 4.377c.54 0 .97-.15 1.289-.448.324-.304.486-.713.486-1.227 0-.515-.162-.922-.486-1.22-.32-.304-.75-.455-1.29-.455h-1.142v3.35h1.143zm5.234-3.374v1.428h2.502V25.4H20.49v1.968h-1.25v-5.403h4.084v1.003H20.49z" fill="#fff"></path>
  </symbol>
  <symbol fill="currentColor" xmlns="http://www.w3.org/2000/svg" viewBox="0 0 4 14" id="mark-icon">
    <rect x=".421" y=".158" width="3.158" height="9.474" rx="1.579"></rect>
    <rect x=".421" y="10.684" width="3.158" height="3.158" rx="1.579"></rect>
  </symbol>
</svg>