<svg width="0" height="0" class="hidden">
  <symbol fill="none" xmlns="http://www.w3.org/2000/svg" viewBox="0 0 11 8" id="check">
    <path d="M.571 4.66a1.053 1.053 0 111.49-1.489l2.662 2.663a1.053 1.053 0 11-1.488 1.489L.57 4.66z" fill="#fff"></path>
    <path d="M4.723 7.323a1.053 1.053 0 01-1.488-1.489l5.21-5.21a1.053 1.053 0 011.489 1.489l-5.21 5.21z" fill="#fff"></path>
  </symbol>
  <symbol fill="none" xmlns="http://www.w3.org/2000/svg" viewBox="0 0 16 10" id="message">
    <path fill-rule="evenodd" clip-rule="evenodd" d="M0 1a1 1 0 011-1h14a1 1 0 011 1v8a1 1 0 01-1 1H1a1 1 0 01-1-1V1zm3.891 1L8 5.228 12.109 2H3.89zM14 3.057L8 7.772 2 3.057V8h12V3.057z" fill="#8C96A2"></path>
  </symbol>
  <symbol fill="none" xmlns="http://www.w3.org/2000/svg" viewBox="0 0 16 16" id="phone">
    <path d="M14.952 11.377c-.082-.059-.163-.125-.237-.184a20.9 20.9 0 00-1.258-.913c-.089-.059-.17-.118-.259-.176-.533-.376-1.013-.553-1.472-.553-.614 0-1.147.339-1.584 1.002-.192.294-.429.434-.725.434-.17 0-.37-.052-.584-.147-1.724-.78-2.96-1.973-3.663-3.549-.34-.765-.229-1.258.37-1.663.34-.228.977-.655.933-1.48C6.42 3.221 4.357.416 3.483.1A1.725 1.725 0 002.33.1C1.33.431.613 1.02.25 1.8c-.348.752-.333 1.635.045 2.548 1.087 2.65 2.611 4.961 4.535 6.868 1.887 1.87 4.195 3.394 6.881 4.542.244.103.496.162.68.199.067.015.12.03.156.037a.204.204 0 00.067.007h.022c1.258 0 2.775-1.148 3.24-2.451.422-1.149-.325-1.716-.924-2.172z" fill="#8C96A2"></path>
  </symbol>
  <symbol fill="none" xmlns="http://www.w3.org/2000/svg" viewBox="0 0 26 26" id="preloader">
    <path opacity=".3" fill-rule="evenodd" clip-rule="evenodd" d="M13 3.25a9.75 9.75 0 100 19.5 9.75 9.75 0 000-19.5zM8.025.99a13 13 0 119.95 24.02A13 13 0 018.025.99z" fill="#fff"></path>
    <path fill-rule="evenodd" clip-rule="evenodd" d="M6.438 3.567a1.625 1.625 0 01-.082 2.297 9.75 9.75 0 1016.388 7.484 1.625 1.625 0 013.248.116 13 13 0 11-21.85-9.979 1.625 1.625 0 012.296.082z" fill="#fff"></path>
  </symbol>
  <symbol fill="none" xmlns="http://www.w3.org/2000/svg" viewBox="0 0 7 8" id="question">
    <path d="M2.967 5.144c0-.364.081-.665.243-.903.169-.237.411-.5.728-.787.232-.21.401-.384.507-.524a.79.79 0 00.168-.494.702.702 0 00-.316-.608c-.204-.154-.479-.231-.823-.231-.33 0-.626.07-.887.21a1.84 1.84 0 00-.643.566L.667 1.628A2.959 2.959 0 011.859.59C2.366.345 2.964.222 3.653.222c.81 0 1.456.172 1.942.514.492.343.738.819.738 1.428 0 .286-.049.538-.147.755a1.922 1.922 0 01-.349.556 7.52 7.52 0 01-.527.515 4.2 4.2 0 00-.57.587.896.896 0 00-.18.567H2.968zm.802 2.634c-.288 0-.531-.091-.728-.273a.927.927 0 01-.285-.682.86.86 0 01.285-.661 1.01 1.01 0 01.728-.273c.296 0 .538.09.728.273a.86.86 0 01.285.66.911.911 0 01-.295.683.996.996 0 01-.718.273z" fill="#fff"></path>
  </symbol>
  <symbol fill="none" xmlns="http://www.w3.org/2000/svg" viewBox="0 0 180 28" id="site-logo">
    <path d="M4.502 22.578V5.414h3.827l2.566-2.304L8.329.807H1.458a1.44 1.44 0 00-1.031.438C.154 1.525 0 1.905 0 2.3v23.39a1.522 1.522 0 00.426 1.056 1.457 1.457 0 001.032.438h9.91v-4.606H4.501zm16.77-17.165v17.165h-3.827l-2.56 2.304 2.566 2.303h6.871a1.429 1.429 0 001.032-.437 1.496 1.496 0 00.426-1.056V2.302c0-.396-.154-.776-.427-1.056a1.443 1.443 0 00-1.03-.438h-9.91v4.607l6.86-.002z" fill="#D12E56"></path>
    <path d="M45.082 16.28l-3.644-1c-1.344-.402-2.273-.953-2.785-1.651-.513-.698-.77-1.663-.771-2.896 0-1.557.469-2.658 1.407-3.305.939-.646 2.543-.969 4.814-.968 2.627.042 4.879.235 6.755.578l-.296 2.88c-2.49-.039-4.365-.06-5.628-.06-.692 0-1.171 0-1.438.014a4.521 4.521 0 00-.799.105c-.268.061-.43.161-.489.29-.07.189-.1.39-.09.59 0 .092.005.183.015.273.01.08.036.159.075.23.038.069.075.123.103.16a.6.6 0 00.157.136c.061.042.125.078.193.107a6.6 6.6 0 00.266.104c.13.049.227.087.297.108l.384.107c.188.05.331.084.43.105l3.733 1.03c1.304.384 2.232.895 2.785 1.531.553.637.829 1.582.829 2.836 0 1.78-.503 2.988-1.51 3.623-1.007.636-2.735.953-5.186.953a38.832 38.832 0 01-6.545-.512l.266-2.914c.71.044 2.399.065 5.066.062 1.52 0 2.513-.066 2.977-.197a.853.853 0 00.52-.326.89.89 0 00.175-.597 2.37 2.37 0 00-.014-.274.62.62 0 00-.074-.228.88.88 0 00-.118-.16.953.953 0 00-.193-.136c-.09-.05-.157-.09-.208-.123a2.012 2.012 0 00-.28-.12 3.651 3.651 0 00-.327-.106l-.414-.106a3.269 3.269 0 01-.438-.142zm8.138-6.063l-.415-3.032a42.017 42.017 0 017.615-.728c1.973 0 3.425.41 4.355 1.23.93.819 1.394 2.238 1.391 4.258v9.886H62.7l-.445-2.274c-1.46 1.758-3.258 2.637-5.392 2.637-1.403 0-2.548-.376-3.436-1.129-.888-.753-1.332-1.809-1.333-3.168v-1.516c0-1.194.394-2.121 1.185-2.79.791-.67 1.892-1 3.288-1h5.214v-.667c-.019-.768-.192-1.283-.519-1.545-.324-.263-.945-.397-1.88-.397-1.62-.006-3.673.073-6.161.235zm3.2 6.49v.574c0 1.032.572 1.548 1.717 1.547 1.186 0 2.4-.484 3.645-1.452V15.28h-3.94c-.949.023-1.423.499-1.423 1.428zM77.43 3.281h-2.757c-.73 0-1.239.141-1.526.424-.286.283-.43.789-.428 1.517v1.667h3.398v3h-3.398v11.942h-4.413V9.883H66.86V7.035l1.445-.152V4.609c0-3.074 1.6-4.61 4.798-4.609 2.075 0 3.655.101 4.742.303l-.415 2.978zm8.856 12.582h-5.28c.139 1.09.46 1.823.963 2.197.504.374 1.338.561 2.503.561a51.883 51.883 0 005.452-.338l.415 2.789c-1.522.753-3.645 1.129-6.37 1.129-2.745 0-4.7-.606-5.866-1.818-1.165-1.212-1.748-3.216-1.747-6.012 0-2.93.568-4.982 1.704-6.154 1.136-1.172 3.047-1.759 5.733-1.76 2.43 0 4.188.43 5.274 1.29 1.085.861 1.637 2.168 1.656 3.922 0 1.397-.35 2.44-1.051 3.14-.701.698-1.831 1.054-3.386 1.054zm-5.359-2.699h4.147c.535 0 .894-.13 1.082-.395.187-.264.282-.645.282-1.15 0-.71-.178-1.2-.535-1.473-.356-.272-1.01-.41-1.964-.413-1.127 0-1.897.227-2.31.681-.413.454-.65 1.369-.711 2.745l.01.005zM95.28 6.883l.325 2.213c2.113-1.76 4.197-2.64 6.253-2.639 1.323 0 2.335.354 3.035 1.062.701.707 1.052 1.738 1.053 3.092v11.22h-4.356v-9.825c0-.668-.104-1.129-.316-1.377-.211-.249-.576-.381-1.103-.381-.929 0-2.282.455-4.059 1.366v10.217h-4.388V6.883h3.556zm21.651 8.98h-5.268c.139 1.09.46 1.823.963 2.197.504.374 1.337.561 2.503.561a51.91 51.91 0 005.446-.338l.414 2.789c-1.521.753-3.644 1.129-6.369 1.129-2.746 0-4.701-.606-5.867-1.818-1.165-1.212-1.748-3.214-1.748-6.006 0-2.93.568-4.981 1.704-6.154 1.136-1.172 3.047-1.758 5.733-1.76 2.428 0 4.186.43 5.272 1.291 1.087.86 1.64 2.165 1.66 3.915 0 1.397-.352 2.44-1.051 3.14-.7.698-1.832 1.054-3.392 1.054zm-5.359-2.699h4.147c.532 0 .893-.13 1.081-.395.187-.264.28-.645.28-1.15 0-.71-.177-1.2-.532-1.473-.356-.272-1.008-.41-1.958-.413-1.128 0-1.898.227-2.311.681-.416.449-.651 1.371-.711 2.745l.004.005zm16.326-3.281v7.066c0 .566.119.967.354 1.182.235.215.654.332 1.245.332h1.868l.473 3.125c-1.125.403-2.498.605-4.118.606-1.322 0-2.35-.376-3.082-1.129-.732-.753-1.1-1.809-1.103-3.168V9.883h-1.474V7.035l1.474-.152V2.699h4.363v4.184h4.058v3h-4.058zm9.31-3l.316 2.182c.472-.896 1.084-1.901 2.217-2.227 1.261-.365 2.484-.349 3.591-.349 3.362 0 5.044 2.668 5.044 8.003 0 2.871-.45 4.877-1.348 6.018-.898 1.141-2.306 1.712-4.223 1.713-1.975 0-3.604-.483-4.886-1.451a25 25 0 01.088 3.215v3.608h-4.356V6.883h3.557zm.799 4.549v6.85c1.54.405 2.643.607 3.31.607.968 0 1.635-.283 2.001-.848.365-.566.548-1.749.548-3.55 0-1.757-.168-2.945-.504-3.56-.334-.615-.929-.925-1.778-.925-.96 0-2.022-.399-3.577 1.426zm12.588-1.215l-.416-3.032a42.025 42.025 0 017.616-.728c1.973 0 3.424.41 4.353 1.23.929.819 1.394 2.238 1.394 4.258v9.886h-3.468l-.445-2.274c-1.46 1.758-3.258 2.637-5.392 2.637-1.403 0-2.548-.376-3.436-1.129-.888-.753-1.332-1.809-1.333-3.168v-1.516c0-1.194.395-2.121 1.185-2.79.79-.67 1.891-1 3.29-1h5.214v-.667c-.02-.768-.193-1.283-.519-1.545-.326-.263-.946-.397-1.88-.397-1.618-.006-3.672.073-6.163.235zm3.199 6.49v.574c0 1.032.573 1.548 1.718 1.547 1.186 0 2.4-.484 3.645-1.452V15.28h-3.941c-.946.023-1.418.499-1.417 1.428h-.005zM180 6.883l-5.186 15.163a12.154 12.154 0 01-1.021 2.244 10.125 10.125 0 01-1.556 1.986 5.736 5.736 0 01-2.364 1.41 7.192 7.192 0 01-3.124.241l-.355-2.637c1.184-.323 2.112-.742 2.786-1.258a5.11 5.11 0 001.576-2.078l.06-.12h-.834c-.732 0-1.204-.364-1.419-1.091l-4.769-13.857h4.681l2.725 9.67c.178.71.326 1.453.445 2.244h.386c.058-.242.156-.618.296-1.129.137-.516.237-.884.295-1.108l2.697-9.67 4.681-.01z" fill="#175598"></path>
  </symbol>
</svg>