<svg width="20" height="20" viewBox="0 0 20 20" fill="none" xmlns="http://www.w3.org/2000/svg">
<circle cx="10" cy="10" r="10" fill="#24B63B"/>
<path d="M5.57149 10.6598C5.16041 10.2487 5.16041 9.58224 5.57149 9.17117C5.98257 8.76009 6.64906 8.76009 7.06014 9.17117L9.72334 11.8344C10.1344 12.2454 10.1344 12.9119 9.72334 13.323C9.31226 13.7341 8.64577 13.7341 8.23469 13.323L5.57149 10.6598Z" fill="white"/>
<path d="M9.72334 13.323C9.31226 13.7341 8.64577 13.7341 8.23469 13.323C7.82361 12.9119 7.82361 12.2454 8.23469 11.8344L13.445 6.6241C13.856 6.21303 14.5225 6.21303 14.9336 6.6241C15.3447 7.03518 15.3447 7.70167 14.9336 8.11275L9.72334 13.323Z" fill="white"/>
</svg>
