<svg width="40" height="40" fill="none" xmlns="http://www.w3.org/2000/svg">
  <path d="M28.069 0h-15.44a3.509 3.509 0 00-3.508 3.509V36.49A3.509 3.509 0 0012.63 40h23.86a3.509 3.509 0 003.508-3.509V11.93h-7.017L28.068 0z" fill="#D7DADD"/>
  <path d="M28.07 0v8.421a3.509 3.509 0 003.51 3.509H40L28.07 0z" fill="#A8ADBA"/>
  <path d="M39.998 18.246l-9.123-6.316h9.123v6.316z" fill="#D4D6DD"/>
  <path opacity=".3" d="M9.121 34.386h20.351a2.105 2.105 0 002.105-2.105V19.649a2.105 2.105 0 00-2.105-2.105H9.122v16.842z" fill="#8FAC3C"/>
  <path d="M0 18.246c0-1.163.943-2.106 2.105-2.106H28.07c1.163 0 2.105.943 2.105 2.106v12.631a2.105 2.105 0 01-2.105 2.106H2.105A2.105 2.105 0 010 30.877V18.246z" fill="#8FAC3C"/>
  <path d="M8.264 22.984H6.535v-1.02h4.709v1.02h-1.73v4.384h-1.25v-4.384zM11.917 21.965h1.25v5.403h-1.25v-5.403zM15.7 22.968v1.428h2.501V25.4h-2.5v1.968H14.45v-5.403h4.083v1.003H15.7zM20.63 22.968v1.428h2.501V25.4h-2.5v1.968H19.38v-5.403h4.083v1.003H20.63z" fill="#fff"/>
</svg>