<svg width="20" height="20" viewBox="0 0 20 20" fill="none" xmlns="http://www.w3.org/2000/svg">
<circle cx="10" cy="10" r="10" fill="#E10909"/>
<path fill-rule="evenodd" clip-rule="evenodd" d="M10 3C9.17157 3 8.5 3.67157 8.5 4.5V11.1923C8.5 12.0207 9.17157 12.6923 10 12.6923C10.8284 12.6923 11.5 12.0207 11.5 11.1923V4.5C11.5 3.67157 10.8284 3 10 3ZM10 13.7692C9.17157 13.7692 8.5 14.4408 8.5 15.2692V15.5C8.5 16.3284 9.17157 17 10 17C10.8284 17 11.5 16.3284 11.5 15.5V15.2692C11.5 14.4408 10.8284 13.7692 10 13.7692Z" fill="white"/>
</svg>
