<svg width="40" height="40" fill="none" xmlns="http://www.w3.org/2000/svg">
  <path d="M28.069 0h-15.44a3.509 3.509 0 00-3.508 3.509V36.49A3.509 3.509 0 0012.63 40h23.86a3.509 3.509 0 003.508-3.509V11.93h-7.017L28.068 0z" fill="#D7DADD"/>
  <path d="M28.07 0v8.421a3.509 3.509 0 003.51 3.509H40L28.07 0z" fill="#A8ADBA"/>
  <path d="M39.998 18.246l-9.123-6.316h9.123v6.316z" fill="#D4D6DD"/>
  <path opacity=".3" d="M9.121 34.386h20.351a2.105 2.105 0 002.105-2.105V19.649a2.105 2.105 0 00-2.105-2.105H9.122v16.842z" fill="#19923B"/>
  <path d="M0 18.246c0-1.163.943-2.106 2.105-2.106H28.07c1.163 0 2.105.943 2.105 2.106v12.631a2.105 2.105 0 01-2.105 2.106H2.105A2.105 2.105 0 010 30.877V18.246z" fill="#19923B"/>
  <path d="M11.338 27.369l-1.304-1.876-1.282 1.876H7.316l2-2.749-1.9-2.655h1.421l1.243 1.752 1.22-1.752h1.35l-1.883 2.61 2.015 2.794h-1.444zM13.271 21.965h1.25v4.384h2.71v1.02h-3.96v-5.404zM19.675 27.461c-.427 0-.841-.056-1.243-.17-.396-.118-.715-.27-.957-.455l.425-.942c.231.17.507.306.826.41.319.102.638.154.957.154.355 0 .617-.052.787-.155.17-.108.255-.25.255-.424a.388.388 0 00-.154-.317 1.06 1.06 0 00-.386-.208 7.27 7.27 0 00-.633-.17 8.82 8.82 0 01-1.012-.293 1.672 1.672 0 01-.679-.471c-.185-.217-.278-.505-.278-.865 0-.314.085-.597.255-.849.17-.257.424-.46.764-.61.345-.15.764-.224 1.258-.224.345 0 .682.041 1.012.124.329.082.617.2.864.355l-.386.95c-.499-.284-.998-.425-1.497-.425-.35 0-.61.056-.78.17a.52.52 0 00-.247.447c0 .186.095.325.286.417.195.088.491.175.887.263.412.097.75.195 1.012.293.262.098.486.252.671.463.19.211.286.497.286.857 0 .309-.088.592-.263.85-.17.251-.427.452-.772.601-.344.15-.764.224-1.258.224z" fill="#fff"/>
</svg>